<svg width="83" height="83" viewBox="0 0 83 83" fill="none" xmlns="http://www.w3.org/2000/svg">
<g clip-path="url(#clip0_22_1198)">
<path d="M68.1994 73.0627C61.0017 79.1418 51.6644 83 41.5 83C26.3752 83 13.0983 74.6676 5.90076 62.5094L8.59534 50.0882L20.5392 47.8709C23.3113 56.8192 31.676 63.3848 41.5 63.3848C46.2658 63.3848 50.6916 61.8772 54.339 59.2024L65.8164 60.9531L68.1994 73.0627Z" fill="#59C36A"/>
<path d="M68.1994 73.0627L65.8164 60.9531L54.3391 59.2023C50.6916 61.8771 46.2659 63.3847 41.5 63.3847V83C51.6644 83 61.0018 79.1418 68.1994 73.0627Z" fill="#00A66C"/>
<path d="M19.6152 41.5C19.6152 43.7369 19.9557 45.8768 20.5393 47.8709L5.90078 62.5094C2.25332 56.3816 0 49.1838 0 41.5C0 33.8158 2.25332 26.6183 5.90078 20.4906L17.6493 22.5126L20.5393 35.1291C19.9557 37.1229 19.6152 39.2627 19.6152 41.5Z" fill="#FFDA2D"/>
<path d="M83 41.5C83 54.1444 77.148 65.476 68.1994 73.0627L54.3391 59.2023C57.1596 57.1596 59.5428 54.4362 61.099 51.2266H41.5C40.1381 51.2266 39.0684 50.1565 39.0684 48.7949V34.2051C39.0684 32.8432 40.1381 31.7734 41.5 31.7734H79.8875C81.0547 31.7734 82.076 32.6 82.2705 33.7672C82.7568 36.2963 83 38.9223 83 41.5Z" fill="#4086F4"/>
<path d="M61.0992 51.2266C59.5429 54.4362 57.1596 57.1596 54.3392 59.2023L68.1994 73.0627C77.148 65.476 83 54.1445 83 41.5C83 38.9223 82.7568 36.2963 82.2703 33.7672C82.076 32.6 81.0545 31.7734 79.8873 31.7734H41.5V51.2266H61.0992Z" fill="#4175DF"/>
<path d="M68.8802 11.5907C68.9289 12.2715 68.6371 12.9039 68.1994 13.3901L57.792 23.7489C56.9654 24.6243 55.6036 24.7215 54.631 23.992C50.7887 21.1229 46.2658 19.6152 41.5 19.6152C31.676 19.6152 23.3113 26.1805 20.5392 35.1291L5.90076 20.4906C13.0982 8.33242 26.3752 0 41.5 0C51.1779 0 60.6127 3.56641 68.0049 9.79124C68.5398 10.2291 68.8316 10.9098 68.8802 11.5907Z" fill="#FF641A"/>
<path d="M54.6309 23.992C55.6035 24.7217 56.9651 24.6243 57.7918 23.7489L68.1993 13.3901C68.6371 12.9039 68.9289 12.2717 68.8801 11.5907C68.8313 10.9096 68.5397 10.2291 68.0047 9.79124C60.6127 3.56641 51.1779 0 41.5 0V19.6152C46.2659 19.6152 50.7887 21.1229 54.6309 23.992Z" fill="#F03800"/>
</g>
<defs>
<clipPath id="clip0_22_1198">
<rect width="83" height="83" fill="white"/>
</clipPath>
</defs>
</svg>
