<svg width="124" height="43" viewBox="0 0 124 43" fill="none" xmlns="http://www.w3.org/2000/svg">
<rect y="2" width="124" height="41" rx="5" fill="white"/>
<path d="M28.9 12.06V33H24.7V19.38L19.09 33H15.91L10.27 19.38V33H6.07V12.06H10.84L17.5 27.63L24.16 12.06H28.9ZM37.4024 10.8V33H33.2024V10.8H37.4024ZM57.152 24.33C57.152 24.93 57.112 25.47 57.032 25.95H44.882C44.982 27.15 45.402 28.09 46.142 28.77C46.882 29.45 47.792 29.79 48.872 29.79C50.432 29.79 51.542 29.12 52.202 27.78H56.732C56.252 29.38 55.332 30.7 53.972 31.74C52.612 32.76 50.942 33.27 48.962 33.27C47.362 33.27 45.922 32.92 44.642 32.22C43.382 31.5 42.392 30.49 41.672 29.19C40.972 27.89 40.622 26.39 40.622 24.69C40.622 22.97 40.972 21.46 41.672 20.16C42.372 18.86 43.352 17.86 44.612 17.16C45.872 16.46 47.322 16.11 48.962 16.11C50.542 16.11 51.952 16.45 53.192 17.13C54.452 17.81 55.422 18.78 56.102 20.04C56.802 21.28 57.152 22.71 57.152 24.33ZM52.802 23.13C52.782 22.05 52.392 21.19 51.632 20.55C50.872 19.89 49.942 19.56 48.842 19.56C47.802 19.56 46.922 19.88 46.202 20.52C45.502 21.14 45.072 22.01 44.912 23.13H52.802ZM64.5677 18.81C65.1077 18.01 65.8477 17.36 66.7877 16.86C67.7477 16.36 68.8377 16.11 70.0577 16.11C71.4777 16.11 72.7577 16.46 73.8977 17.16C75.0577 17.86 75.9677 18.86 76.6277 20.16C77.3077 21.44 77.6477 22.93 77.6477 24.63C77.6477 26.33 77.3077 27.84 76.6277 29.16C75.9677 30.46 75.0577 31.47 73.8977 32.19C72.7577 32.91 71.4777 33.27 70.0577 33.27C68.8177 33.27 67.7277 33.03 66.7877 32.55C65.8677 32.05 65.1277 31.41 64.5677 30.63V33H60.3677V10.8H64.5677V18.81ZM73.3577 24.63C73.3577 23.63 73.1477 22.77 72.7277 22.05C72.3277 21.31 71.7877 20.75 71.1077 20.37C70.4477 19.99 69.7277 19.8 68.9477 19.8C68.1877 19.8 67.4677 20 66.7877 20.4C66.1277 20.78 65.5877 21.34 65.1677 22.08C64.7677 22.82 64.5677 23.69 64.5677 24.69C64.5677 25.69 64.7677 26.56 65.1677 27.3C65.5877 28.04 66.1277 28.61 66.7877 29.01C67.4677 29.39 68.1877 29.58 68.9477 29.58C69.7277 29.58 70.4477 29.38 71.1077 28.98C71.7877 28.58 72.3277 28.01 72.7277 27.27C73.1477 26.53 73.3577 25.65 73.3577 24.63ZM96.5397 16.38V33H92.3097V30.9C91.7697 31.62 91.0597 32.19 90.1797 32.61C89.3197 33.01 88.3797 33.21 87.3597 33.21C86.0597 33.21 84.9097 32.94 83.9097 32.4C82.9097 31.84 82.1197 31.03 81.5397 29.97C80.9797 28.89 80.6997 27.61 80.6997 26.13V16.38H84.8997V25.53C84.8997 26.85 85.2297 27.87 85.8897 28.59C86.5497 29.29 87.4497 29.64 88.5897 29.64C89.7497 29.64 90.6597 29.29 91.3197 28.59C91.9797 27.87 92.3097 26.85 92.3097 25.53V16.38H96.5397ZM116.524 16.38V33H112.294V30.9C111.754 31.62 111.044 32.19 110.164 32.61C109.304 33.01 108.364 33.21 107.344 33.21C106.044 33.21 104.894 32.94 103.894 32.4C102.894 31.84 102.104 31.03 101.524 29.97C100.964 28.89 100.684 27.61 100.684 26.13V16.38H104.884V25.53C104.884 26.85 105.214 27.87 105.874 28.59C106.534 29.29 107.434 29.64 108.574 29.64C109.734 29.64 110.644 29.29 111.304 28.59C111.964 27.87 112.294 26.85 112.294 25.53V16.38H116.524Z" fill="#39A9CB"/>
</svg>
