<svg width="663" height="615" viewBox="0 0 663 615" fill="none" xmlns="http://www.w3.org/2000/svg">
<path d="M138.912 25.4167C158.48 16.5417 179.01 9.96193 200.092 5.80882C223.451 0.917679 247.35 -0.896813 271.179 0.411536C326.792 3.82754 381.448 33.3759 404.267 85.8115C429.494 143.883 418.426 210.649 422.32 271.983C424.626 308.364 434.823 346.794 462.509 370.501C499.88 402.492 570.745 390.16 593.393 439.504C618.672 494.536 552.111 552.932 506.285 569.534C476.669 580.294 438.666 580.158 411.679 562.138C384.693 544.119 370.124 509.344 359.807 479.591C350.003 451.358 341.907 408.128 314.614 391.39C297.619 380.971 276.184 382.576 256.32 384.148C184.447 389.835 115.973 375.608 68.2175 317.058C26.3374 265.715 15.799 193.193 38.6862 130.664C57.1326 80.2093 93.7521 46.2372 138.912 25.4167Z" fill="#39A9CB"/>
<path opacity="0.9" d="M138.912 25.4167C158.48 16.5417 179.01 9.96193 200.092 5.80882C223.451 0.917679 247.35 -0.896813 271.179 0.411536C326.792 3.82754 381.448 33.3759 404.267 85.8115C429.494 143.883 418.426 210.649 422.32 271.983C424.626 308.364 434.823 346.794 462.509 370.501C499.88 402.492 570.745 390.16 593.393 439.504C618.672 494.536 552.111 552.932 506.285 569.534C476.669 580.294 438.666 580.158 411.679 562.138C384.693 544.119 370.124 509.344 359.807 479.591C350.003 451.358 341.907 408.128 314.614 391.39C297.619 380.971 276.184 382.576 256.32 384.148C184.447 389.835 115.973 375.608 68.2175 317.058C26.3374 265.715 15.799 193.193 38.6862 130.664C57.1326 80.2093 93.7521 46.2372 138.912 25.4167Z" fill="#D8E8ED"/>
<path d="M331.164 614.813C514.061 614.813 662.328 606.157 662.328 595.479C662.328 584.801 514.061 576.144 331.164 576.144C148.267 576.144 0 584.801 0 595.479C0 606.157 148.267 614.813 331.164 614.813Z" fill="#F5F5F5"/>
<path d="M462.971 567.314C463.213 566.791 463.327 566.219 463.303 565.643C463.28 565.068 463.12 564.506 462.836 564.005C462.552 563.504 462.153 563.078 461.671 562.763C461.19 562.447 460.64 562.25 460.067 562.19C460.584 560.686 460.626 559.06 460.186 557.531C459.746 556.003 458.845 554.648 457.607 553.65C457.316 553.379 456.944 553.211 456.548 553.172C456.122 553.215 455.721 553.395 455.404 553.684L448.572 558.535C448.031 558.87 447.575 559.326 447.24 559.867C445.856 562.548 450.827 565.982 448.777 568.185C448.196 568.817 447.257 568.953 446.523 569.415C444.9 570.422 444.712 572.626 443.961 574.368C443.209 576.11 440.545 577.476 439.588 575.854C440.323 574.146 438.102 572.745 436.275 572.54C434.447 572.335 432.568 572.216 431.561 570.525C428.981 572.762 423.208 566.477 423.345 563.949C422.326 564.132 421.391 564.629 420.668 565.37C419.945 566.111 419.472 567.059 419.314 568.082C419.017 570.175 418.943 572.293 419.092 574.402C419.092 578.501 417.709 582.515 417.777 586.614C417.777 589.808 419.075 593.361 421.996 594.642C423.452 595.156 424.998 595.365 426.539 595.257L459.828 595.035C460.626 595.094 461.428 594.965 462.168 594.659C463.671 593.873 463.978 591.892 464.115 590.201L465.908 568.509L462.971 567.314Z" fill="#39A9CB"/>
<path opacity="0.3" d="M462.971 567.314C463.213 566.791 463.327 566.219 463.303 565.643C463.28 565.068 463.12 564.506 462.836 564.005C462.552 563.504 462.153 563.078 461.671 562.763C461.19 562.447 460.64 562.25 460.067 562.19C460.584 560.686 460.626 559.06 460.186 557.531C459.746 556.003 458.845 554.648 457.607 553.65C457.316 553.379 456.944 553.211 456.548 553.172C456.122 553.215 455.721 553.395 455.404 553.684L448.572 558.535C448.031 558.87 447.575 559.326 447.24 559.867C445.856 562.548 450.827 565.982 448.777 568.185C448.196 568.817 447.257 568.953 446.523 569.415C444.9 570.422 444.712 572.626 443.961 574.368C443.209 576.11 440.545 577.476 439.588 575.854C440.323 574.146 438.102 572.745 436.275 572.54C434.447 572.335 432.568 572.216 431.561 570.525C428.981 572.762 423.208 566.477 423.345 563.949C422.326 564.132 421.391 564.629 420.668 565.37C419.945 566.111 419.472 567.059 419.314 568.082C419.017 570.175 418.943 572.293 419.092 574.402C419.092 578.501 417.709 582.515 417.777 586.614C417.777 589.808 419.075 593.361 421.996 594.642C423.452 595.156 424.998 595.365 426.539 595.257L459.828 595.035C460.626 595.094 461.428 594.965 462.168 594.659C463.671 593.873 463.978 591.892 464.115 590.201L465.908 568.509L462.971 567.314Z" fill="white"/>
<path d="M464.901 532.129H413.251L413.678 537.355L413.985 541.079L414.771 550.763L415.215 556.348L415.813 563.761L416.069 566.938L416.154 567.877L416.462 571.618L416.872 576.742L417.128 579.919L417.384 583.147L417.692 586.887L417.931 589.723L418.187 592.9L418.289 594.283H465.686L465.806 592.9L466.062 589.723L466.284 586.87L466.592 583.13L466.865 579.919L467.121 576.742L467.531 571.618L467.838 567.894V566.955L468.095 563.778L468.692 556.365L469.154 550.797L469.922 541.096L470.23 537.372L470.657 532.146L464.901 532.129ZM468.009 535.545L467.019 534.554H468.095L468.009 535.545ZM467.804 538.705L467.719 539.969L463.09 544.58L457.778 539.285L462.527 534.537H463.654L467.804 538.705ZM466.472 555.238L463.056 558.654L457.744 553.342L463.056 548.065L466.711 551.72L466.472 555.238ZM417.316 551.686L420.988 548.03L426.283 553.308L420.988 558.62L417.572 555.204L417.316 551.686ZM461.382 546.305L456.07 551.6L450.775 546.305L456.07 540.993L461.382 546.305ZM453.047 534.537H459.111L456.07 537.577L453.047 534.537ZM454.345 553.325L449.05 558.637L443.756 553.325L449.05 548.047L454.345 553.325ZM436.736 560.345L442.048 555.05L447.342 560.345L442.048 565.657L436.736 560.345ZM440.323 567.365L435.011 572.66L429.733 567.365L435.028 562.07L440.323 567.365ZM449.05 562.07L454.345 567.365L449.05 572.66L443.756 567.365L449.05 562.07ZM442.048 551.617L436.736 546.322L442.048 541.011L447.342 546.322L442.048 551.617ZM440.34 553.325L435.045 558.637L429.75 553.325L435.045 548.047L440.34 553.325ZM428.025 551.617L422.73 546.322L428.025 541.011L433.32 546.322L428.025 551.617ZM428.025 555.033L433.32 560.328L428.025 565.64L422.73 560.328L428.025 555.033ZM433.32 574.368L428.025 579.663L422.73 574.368L428.025 569.073L433.32 574.368ZM435.028 576.076L440.34 581.388L435.045 586.682L429.75 581.388L435.028 576.076ZM436.736 574.368L442.048 569.073L447.342 574.368L442.048 579.663L436.736 574.368ZM449.05 576.076L454.345 581.388L449.05 586.682L443.756 581.388L449.05 576.076ZM456.019 583.113L461.331 588.425L457.915 591.841H454.14L450.724 588.425L456.019 583.113ZM450.724 574.385L456.019 569.09L461.331 574.385L456.019 579.697L450.724 574.385ZM450.724 560.345L456.019 555.05L461.331 560.345L456.019 565.657L450.724 560.345ZM454.294 539.303L448.999 544.597L443.704 539.303L448.453 534.554H449.563L454.294 539.303ZM441.996 537.595L438.956 534.554H445.02L441.996 537.595ZM440.288 539.303L434.994 544.597L429.699 539.303L434.43 534.554H435.557L440.288 539.303ZM430.997 534.554L427.974 537.595L424.951 534.554H430.997ZM421.517 534.554L426.249 539.303L420.954 544.597L416.342 539.986L416.24 538.722L420.39 534.554H421.517ZM416.974 534.554L415.984 535.545V534.554H416.974ZM416.65 543.726L419.246 546.322L417.025 548.526L416.65 543.726ZM418.084 561.507L417.879 558.996L419.246 560.362L418.084 561.524V561.507ZM418.341 564.683L420.954 562.07L426.249 567.365L420.954 572.66L418.819 570.525L418.341 564.683ZM419.126 574.504V574.265L419.246 574.385L419.126 574.504ZM420.049 585.794L419.382 577.664L420.954 576.093L426.249 581.405L420.954 586.7L420.049 585.794ZM420.544 591.858L420.441 590.645L420.954 590.133L422.662 591.841L420.544 591.858ZM422.679 588.442L427.974 583.13L433.268 588.442L429.852 591.858H426.112L422.679 588.442ZM433.268 591.858L434.976 590.15L436.684 591.858H433.268ZM440.1 591.858L436.684 588.442L441.996 583.13L447.291 588.442L443.875 591.858H440.1ZM447.274 591.858L448.982 590.15L450.69 591.858H447.274ZM463.432 591.858H461.314L463.022 590.15L463.534 590.662L463.432 591.858ZM463.927 585.794L463.022 586.7L457.727 581.405L463.039 576.093L464.61 577.664L463.927 585.794ZM464.867 574.248V574.504L464.764 574.385L464.901 574.248H464.867ZM465.174 570.525L463.022 572.66L457.71 567.365L463.022 562.07L465.635 564.683L465.174 570.525ZM465.891 561.507L464.73 560.345L466.096 558.996L465.891 561.507ZM467.343 543.709L466.95 548.543L464.73 546.322L467.343 543.709Z" fill="#39A9CB"/>
<g opacity="0.6">
<path opacity="0.6" d="M464.901 532.129H413.251L413.678 537.355L413.985 541.079L414.771 550.763L415.215 556.348L415.813 563.761L416.069 566.938L416.154 567.877L416.462 571.618L416.872 576.742L417.128 579.919L417.384 583.147L417.692 586.887L417.931 589.723L418.187 592.9L418.289 594.283H465.686L465.806 592.9L466.062 589.723L466.284 586.87L466.592 583.13L466.865 579.919L467.121 576.742L467.531 571.618L467.838 567.894V566.955L468.095 563.778L468.692 556.365L469.154 550.797L469.922 541.096L470.23 537.372L470.657 532.146L464.901 532.129ZM468.009 535.545L467.019 534.554H468.095L468.009 535.545ZM467.804 538.705L467.719 539.969L463.09 544.58L457.778 539.285L462.527 534.537H463.654L467.804 538.705ZM466.472 555.238L463.056 558.654L457.744 553.342L463.056 548.065L466.711 551.72L466.472 555.238ZM417.316 551.686L420.988 548.03L426.283 553.308L420.988 558.62L417.572 555.204L417.316 551.686ZM461.382 546.305L456.07 551.6L450.775 546.305L456.07 540.993L461.382 546.305ZM453.047 534.537H459.111L456.07 537.577L453.047 534.537ZM454.345 553.325L449.05 558.637L443.756 553.325L449.05 548.047L454.345 553.325ZM436.736 560.345L442.048 555.05L447.342 560.345L442.048 565.657L436.736 560.345ZM440.323 567.365L435.011 572.66L429.733 567.365L435.028 562.07L440.323 567.365ZM449.05 562.07L454.345 567.365L449.05 572.66L443.756 567.365L449.05 562.07ZM442.048 551.617L436.736 546.322L442.048 541.011L447.342 546.322L442.048 551.617ZM440.34 553.325L435.045 558.637L429.75 553.325L435.045 548.047L440.34 553.325ZM428.025 551.617L422.73 546.322L428.025 541.011L433.32 546.322L428.025 551.617ZM428.025 555.033L433.32 560.328L428.025 565.64L422.73 560.328L428.025 555.033ZM433.32 574.368L428.025 579.663L422.73 574.368L428.025 569.073L433.32 574.368ZM435.028 576.076L440.34 581.388L435.045 586.682L429.75 581.388L435.028 576.076ZM436.736 574.368L442.048 569.073L447.342 574.368L442.048 579.663L436.736 574.368ZM449.05 576.076L454.345 581.388L449.05 586.682L443.756 581.388L449.05 576.076ZM456.019 583.113L461.331 588.425L457.915 591.841H454.14L450.724 588.425L456.019 583.113ZM450.724 574.385L456.019 569.09L461.331 574.385L456.019 579.697L450.724 574.385ZM450.724 560.345L456.019 555.05L461.331 560.345L456.019 565.657L450.724 560.345ZM454.294 539.303L448.999 544.597L443.704 539.303L448.453 534.554H449.563L454.294 539.303ZM441.996 537.595L438.956 534.554H445.02L441.996 537.595ZM440.288 539.303L434.994 544.597L429.699 539.303L434.43 534.554H435.557L440.288 539.303ZM430.997 534.554L427.974 537.595L424.951 534.554H430.997ZM421.517 534.554L426.249 539.303L420.954 544.597L416.342 539.986L416.24 538.722L420.39 534.554H421.517ZM416.974 534.554L415.984 535.545V534.554H416.974ZM416.65 543.726L419.246 546.322L417.025 548.526L416.65 543.726ZM418.084 561.507L417.879 558.996L419.246 560.362L418.084 561.524V561.507ZM418.341 564.683L420.954 562.07L426.249 567.365L420.954 572.66L418.819 570.525L418.341 564.683ZM419.126 574.504V574.265L419.246 574.385L419.126 574.504ZM420.049 585.794L419.382 577.664L420.954 576.093L426.249 581.405L420.954 586.7L420.049 585.794ZM420.544 591.858L420.441 590.645L420.954 590.133L422.662 591.841L420.544 591.858ZM422.679 588.442L427.974 583.13L433.268 588.442L429.852 591.858H426.112L422.679 588.442ZM433.268 591.858L434.976 590.15L436.684 591.858H433.268ZM440.1 591.858L436.684 588.442L441.996 583.13L447.291 588.442L443.875 591.858H440.1ZM447.274 591.858L448.982 590.15L450.69 591.858H447.274ZM463.432 591.858H461.314L463.022 590.15L463.534 590.662L463.432 591.858ZM463.927 585.794L463.022 586.7L457.727 581.405L463.039 576.093L464.61 577.664L463.927 585.794ZM464.867 574.248V574.504L464.764 574.385L464.901 574.248H464.867ZM465.174 570.525L463.022 572.66L457.71 567.365L463.022 562.07L465.635 564.683L465.174 570.525ZM465.891 561.507L464.73 560.345L466.096 558.996L465.891 561.507ZM467.343 543.709L466.95 548.543L464.73 546.322L467.343 543.709Z" fill="white"/>
</g>
<path d="M412.738 536.723H471.22C472.767 536.723 474.021 535.469 474.021 533.922V532.761C474.021 531.214 472.767 529.96 471.22 529.96H412.738C411.191 529.96 409.937 531.214 409.937 532.761V533.922C409.937 535.469 411.191 536.723 412.738 536.723Z" fill="#39A9CB"/>
<path d="M466.609 590.645H417.367C415.82 590.645 414.566 591.899 414.566 593.446V594.608C414.566 596.155 415.82 597.409 417.367 597.409H466.609C468.156 597.409 469.41 596.155 469.41 594.608V593.446C469.41 591.899 468.156 590.645 466.609 590.645Z" fill="#39A9CB"/>
<path d="M637.614 44.2559H213.927C210.031 44.2559 206.873 47.4141 206.873 51.3099V356.956C206.873 360.852 210.031 364.01 213.927 364.01H637.614C641.509 364.01 644.668 360.852 644.668 356.956V51.3099C644.668 47.4141 641.509 44.2559 637.614 44.2559Z" fill="#39A9CB"/>
<path opacity="0.4" d="M644.668 61.5408H206.873V350.159H644.668V61.5408Z" fill="black"/>
<path d="M634.42 56.7925C636.693 56.7925 638.536 54.9496 638.536 52.6762C638.536 50.4029 636.693 48.5599 634.42 48.5599C632.146 48.5599 630.303 50.4029 630.303 52.6762C630.303 54.9496 632.146 56.7925 634.42 56.7925Z" fill="white"/>
<path d="M620.534 56.7925C622.807 56.7925 624.65 54.9496 624.65 52.6762C624.65 50.4029 622.807 48.5599 620.534 48.5599C618.26 48.5599 616.417 50.4029 616.417 52.6762C616.417 54.9496 618.26 56.7925 620.534 56.7925Z" fill="white"/>
<path d="M606.648 56.7925C608.921 56.7925 610.764 54.9496 610.764 52.6762C610.764 50.4029 608.921 48.5599 606.648 48.5599C604.374 48.5599 602.531 50.4029 602.531 52.6762C602.531 54.9496 604.374 56.7925 606.648 56.7925Z" fill="white"/>
<path d="M350.755 211.537H208.496V336.187H350.755V211.537Z" fill="#263238"/>
<path d="M350.755 84.1376H208.496V208.787H350.755V84.1376Z" fill="#263238"/>
<path d="M496.277 84.1376H354.017V208.787H496.277V84.1376Z" fill="#39A9CB"/>
<path d="M641.815 84.1376H499.556V208.787H641.815V84.1376Z" fill="white"/>
<path d="M496.277 211.537H354.017V336.187H496.277V211.537Z" fill="#263238"/>
<path d="M641.815 211.537H499.556V336.187H641.815V211.537Z" fill="#39A9CB"/>
<path d="M617.442 208.787L620.67 181.596C621.1 178.084 620.212 174.538 618.176 171.644C616.141 168.751 613.104 166.716 609.653 165.934C572.726 157.718 550.693 165.848 550.693 165.848C542.429 179.224 536.044 193.672 531.717 208.787H617.442Z" fill="#263238"/>
<path d="M590.78 164.755C593.945 164.407 597.135 164.345 600.311 164.567C592.283 157.855 596.263 140.809 599.525 131.552L574.708 145.574C574.996 146.76 575.201 147.964 575.323 149.178C575.635 151.348 575.376 153.561 574.571 155.6C573.108 158.218 571.098 160.49 568.679 162.261L578.619 166.685L590.78 164.755Z" fill="#E4897B"/>
<path opacity="0.2" d="M593.837 140.467C592.847 151.843 580.618 154.968 574.623 155.6C575.427 153.561 575.686 151.348 575.374 149.178L593.837 140.467Z" fill="black"/>
<path d="M561.197 106.051C561.197 106.051 559.25 122.226 568.644 129.041C578.038 135.856 576.006 96.3326 576.006 96.3326L561.197 106.051Z" fill="#263238"/>
<path d="M597.612 140.228C597.12 141.229 596.549 142.188 595.904 143.098C594.073 145.812 591.454 147.899 588.4 149.078C585.346 150.257 582.004 150.471 578.824 149.691C578.373 149.591 577.928 149.466 577.492 149.315C573.303 148.005 569.749 145.187 567.517 141.407C567.517 141.287 567.363 141.134 567.278 141.014C566.971 140.467 566.697 139.904 566.424 139.306C565.898 138.049 565.436 136.767 565.041 135.463C561.625 124.481 562.035 106.12 572.231 99.817C580.344 94.693 593.171 96.401 598.278 104.548C599.747 106.854 598.107 112.883 598.364 115.599C599.576 126.633 600.806 133.652 597.612 140.228Z" fill="#E4897B"/>
<path d="M579.917 122.363C580.156 123.353 579.695 124.293 579.012 124.412C578.329 124.532 577.663 123.78 577.492 122.704C577.321 121.628 577.714 120.757 578.38 120.655C579.046 120.552 579.729 121.338 579.917 122.363Z" fill="#263238"/>
<path d="M568.371 124.327C568.61 125.335 568.132 126.274 567.466 126.376C566.8 126.479 566.134 125.744 565.946 124.668C565.758 123.592 566.185 122.721 566.834 122.619C567.483 122.516 568.2 123.37 568.371 124.327Z" fill="#263238"/>
<path d="M572.129 124.207C571.439 127.538 570.289 130.757 568.713 133.772C569.508 134.161 570.38 134.37 571.265 134.384C572.151 134.399 573.029 134.219 573.837 133.857L572.129 124.207Z" fill="#DE5753"/>
<path d="M582.855 118.007C582.747 118.042 582.632 118.047 582.521 118.023C582.41 117.999 582.307 117.947 582.223 117.871C581.679 117.34 581.02 116.942 580.297 116.708C579.574 116.474 578.807 116.41 578.055 116.521C577.899 116.558 577.735 116.532 577.598 116.449C577.461 116.366 577.361 116.232 577.321 116.077C577.301 116.001 577.296 115.921 577.308 115.843C577.32 115.765 577.347 115.69 577.389 115.623C577.43 115.556 577.485 115.498 577.55 115.453C577.615 115.407 577.688 115.376 577.765 115.36C578.72 115.195 579.701 115.265 580.623 115.562C581.545 115.86 582.381 116.376 583.06 117.068C583.171 117.182 583.232 117.336 583.232 117.495C583.232 117.654 583.171 117.807 583.06 117.922C582.996 117.961 582.927 117.99 582.855 118.007Z" fill="#263238"/>
<path d="M562.735 121.201C562.626 121.264 562.501 121.293 562.376 121.287C562.299 121.265 562.228 121.228 562.165 121.179C562.103 121.129 562.051 121.067 562.013 120.997C561.974 120.927 561.951 120.85 561.943 120.771C561.935 120.691 561.943 120.611 561.966 120.535C562.213 119.599 562.682 118.736 563.333 118.02C563.984 117.303 564.798 116.754 565.707 116.419C565.861 116.376 566.025 116.395 566.165 116.471C566.306 116.548 566.411 116.676 566.458 116.829C566.501 116.983 566.482 117.147 566.405 117.287C566.329 117.428 566.201 117.533 566.048 117.58C565.342 117.867 564.712 118.314 564.208 118.886C563.704 119.458 563.34 120.14 563.145 120.877C563.103 120.956 563.044 121.026 562.974 121.082C562.903 121.138 562.822 121.178 562.735 121.201Z" fill="#263238"/>
<path d="M603.146 107.827C603.146 107.486 603.283 107.144 603.334 106.769C605.042 94.6588 587.296 87.5364 571.275 89.0395C564.289 89.7056 565.895 101.645 565.895 101.645C565.895 101.645 561.932 101.645 560.139 104.053C556.979 108.323 561.847 117.717 561.847 117.717C559.404 104.053 566.475 103.301 566.475 103.301C566.475 103.301 568.183 108.596 571.343 108.118C574.503 107.64 582.496 99.9024 586.425 100.825C587.665 101.088 588.814 101.673 589.755 102.522C590.697 103.37 591.398 104.452 591.788 105.658C591.845 106.871 591.643 108.081 591.195 109.209C590.747 110.337 590.064 111.357 589.192 112.2C585.776 115.975 591.515 124.036 595.46 126.496C595.46 126.496 595.324 124.463 597.083 124.788C598.842 125.112 599.679 135.685 596.946 141.133C596.946 141.133 601.438 136.009 602.941 124.532C603.791 119.001 603.86 113.378 603.146 107.827Z" fill="#263238"/>
<path d="M576.365 138.862C577.86 138.829 579.326 138.438 580.64 137.722C581.953 137.006 583.076 135.985 583.914 134.746C583.938 134.71 583.955 134.67 583.963 134.628C583.972 134.586 583.971 134.543 583.961 134.501C583.952 134.459 583.933 134.42 583.907 134.385C583.882 134.351 583.849 134.322 583.811 134.302C583.778 134.279 583.74 134.263 583.7 134.256C583.661 134.248 583.62 134.248 583.58 134.256C583.541 134.264 583.503 134.279 583.469 134.302C583.436 134.324 583.407 134.353 583.384 134.387C582.586 135.521 581.534 136.454 580.313 137.112C579.092 137.77 577.734 138.135 576.347 138.179C576.264 138.179 576.184 138.21 576.124 138.268C576.063 138.325 576.027 138.403 576.023 138.486C576.023 138.569 576.055 138.649 576.112 138.71C576.169 138.77 576.247 138.806 576.33 138.811L576.365 138.862Z" fill="#263238"/>
<path d="M605.571 124.959C604.662 128.029 602.574 130.615 599.764 132.149C596.024 134.165 593.24 131.039 593.479 127.025C593.752 123.456 595.955 117.99 600.106 117.683C604.256 117.375 606.63 121.167 605.571 124.959Z" fill="#E4897B"/>
<path opacity="0.1" d="M578.824 149.691C578.373 149.591 577.928 149.466 577.492 149.315C573.303 148.005 569.749 145.187 567.517 141.407C570.489 141.082 576.689 140.467 577.953 141.014C579.217 141.561 578.995 147.163 578.824 149.691Z" fill="black"/>
<path d="M560.07 208.787H568.388L577.441 175.413L585.673 166.685H571.258L574.623 175.088L560.07 208.787Z" fill="#39A9CB"/>
<path d="M529.446 202.553L528.916 208.787H542.427C553.99 181.34 564.733 161.442 564.733 161.442L550.693 165.848C518.241 175.345 515.509 196.592 521.043 202.024C526.576 207.455 529.446 202.553 529.446 202.553Z" fill="#39A9CB"/>
<path opacity="0.5" d="M529.446 202.553L528.916 208.787H542.427C553.99 181.34 564.733 161.442 564.733 161.442L550.693 165.848C518.241 175.345 515.509 196.592 521.043 202.024C526.576 207.455 529.446 202.553 529.446 202.553Z" fill="white"/>
<path d="M539.54 208.787H542.683C553.204 186.122 570.677 159.529 570.677 159.529C563.514 159.512 556.417 160.899 549.788 163.611L553.392 173.654L544.698 175.362L539.54 208.787Z" fill="#39A9CB"/>
<path opacity="0.4" d="M539.54 208.787H542.683C553.204 186.122 570.677 159.529 570.677 159.529C563.514 159.512 556.417 160.899 549.788 163.611L553.392 173.654L544.698 175.362L539.54 208.787Z" fill="white"/>
<path opacity="0.2" d="M535.885 208.787C537.674 204.943 538.628 200.764 538.686 196.524L529.446 202.553L528.916 208.787H535.885Z" fill="black"/>
<path d="M566.099 162.842L572.744 156.83L578.67 164.909L597.458 156.83L602.172 164.448L583.965 173.483L577.919 167.659L571.258 171.86L566.099 162.842Z" fill="#263238"/>
<path opacity="0.2" d="M566.099 162.842L572.744 156.83L578.67 164.909L597.458 156.83L602.172 164.448L583.965 173.483L577.919 167.659L571.258 171.86L566.099 162.842Z" fill="white"/>
<path d="M544.664 182.911L564.716 161.442C567.307 161.396 569.796 160.427 571.736 158.709C574.708 155.908 578.756 143.508 577.765 142.705C576.775 141.902 564.819 140.911 563.691 142.312C562.564 143.713 557.611 156.249 557.611 156.249L536.124 173.056L544.664 182.911Z" fill="#E4897B"/>
<path d="M546.885 164.14L550.847 160.639L560.343 168L556.039 173.722L546.885 164.14Z" fill="#263238"/>
<path opacity="0.2" d="M546.885 164.14L550.847 160.639L560.343 168L556.039 173.722L546.885 164.14Z" fill="white"/>
<path d="M547.961 161.903L559.336 170.904C559.336 170.904 532.896 212.784 523.28 203.937C513.664 195.089 518.583 181.237 547.961 161.903Z" fill="#39A9CB"/>
<path opacity="0.6" d="M547.961 161.903L559.336 170.904C559.336 170.904 532.896 212.784 523.28 203.937C513.664 195.089 518.583 181.237 547.961 161.903Z" fill="white"/>
<path d="M620.892 208.787L622.6 178.761C622.732 175.849 621.941 172.97 620.34 170.535C618.739 168.1 616.41 166.232 613.684 165.199L598.705 159.529C598.705 159.529 599.337 182.074 601.079 208.736L620.892 208.787Z" fill="#39A9CB"/>
<path opacity="0.5" d="M620.892 208.787L622.6 178.761C622.732 175.849 621.941 172.97 620.34 170.535C618.739 168.1 616.41 166.232 613.684 165.199L598.705 159.529C598.705 159.529 599.337 182.074 601.079 208.736L620.892 208.787Z" fill="white"/>
<path d="M607.211 208.787L612.728 193.296L604.444 185.746L613.924 182.911C607.894 164.328 598.124 158.009 598.124 158.009C595.699 169.965 598.124 193.552 600.054 208.787H607.211Z" fill="#39A9CB"/>
<path opacity="0.4" d="M607.211 208.787L612.728 193.296L604.444 185.746L613.924 182.911C607.894 164.328 598.124 158.009 598.124 158.009C595.699 169.965 598.124 193.552 600.054 208.787H607.211Z" fill="white"/>
<path d="M531.82 205.132C533.528 205.781 546.936 206.669 546.936 206.669L550.061 208.787H571.89L549.686 198.317C548.85 195.867 547.174 193.792 544.955 192.459C541.368 190.477 528.319 190.426 527.875 191.605C527.43 192.783 530.129 204.466 531.82 205.132Z" fill="#E4897B"/>
<path d="M565.024 208.787L567.039 205.166L558.738 201.528L555.783 208.787H565.024Z" fill="#263238"/>
<path opacity="0.2" d="M565.024 208.787L567.039 205.166L558.738 201.528L555.783 208.787H565.024Z" fill="white"/>
<path d="M610.166 208.787C620.072 193.296 627.041 174.439 618.945 168.957C618.945 168.957 612.728 167.249 587.057 206.413C587.057 206.413 584.238 212.459 563.145 202.997L560.395 208.804L610.166 208.787Z" fill="#39A9CB"/>
<path opacity="0.6" d="M610.166 208.787C620.072 193.296 627.041 174.439 618.945 168.957C618.945 168.957 612.728 167.249 587.057 206.413C587.057 206.413 584.238 212.459 563.145 202.997L560.395 208.804L610.166 208.787Z" fill="white"/>
<path opacity="0.3" d="M496.277 211.537H354.017V336.187H496.277V211.537Z" fill="white"/>
<path d="M232.971 208.788C236.387 199.889 256.456 182.553 256.456 182.553V164.653C246.208 166.566 221.118 188.155 220.469 208.736L232.971 208.788Z" fill="#39A9CB"/>
<path opacity="0.6" d="M232.971 208.788C234.679 204.552 239.991 198.42 245.166 193.142C250.922 187.335 256.456 182.57 256.456 182.57V164.653C246.208 166.566 221.101 188.155 220.469 208.736L232.971 208.788Z" fill="white"/>
<path opacity="0.2" d="M245.166 193.142C250.922 187.335 256.456 182.57 256.456 182.57V177.36C256.456 177.36 246.584 182.262 245.166 193.142Z" fill="black"/>
<path d="M328.739 208.787C331.301 193.04 333.863 180.059 334.973 174.183C335.156 173.281 334.978 172.342 334.476 171.569C333.975 170.796 333.191 170.251 332.291 170.05C328.619 169.247 324.827 168.564 321.019 167.983C303.79 165.568 286.407 164.426 269.01 164.567C261.29 164.567 256.456 164.789 256.456 164.789C252.938 177.394 250.837 193.091 249.624 208.873L328.739 208.787Z" fill="#39A9CB"/>
<path opacity="0.7" d="M328.756 208.787L328.961 207.472C331.438 192.322 333.829 179.888 334.956 174.183C335.008 173.872 335.008 173.555 334.956 173.244C334.923 172.486 334.638 171.76 334.146 171.181C333.654 170.603 332.984 170.205 332.24 170.05C328.551 169.247 324.776 168.564 320.967 167.983C303.739 165.568 286.355 164.426 268.959 164.567C261.239 164.567 256.405 164.789 256.405 164.789C252.887 177.394 250.786 193.091 249.573 208.873L328.756 208.787Z" fill="white"/>
<path d="M284.228 184.773C306.432 187.13 321.309 168.205 321.309 168.205L321.019 167.983C303.79 165.568 286.407 164.426 269.01 164.567C269.01 164.567 263.339 182.553 284.228 184.773Z" fill="#39A9CB"/>
<path d="M308.823 166.241C302.572 171.929 287.251 169.828 287.251 169.828C287.251 169.828 277.687 167.215 279.685 164.226C285.321 163.286 288.054 160.656 289.181 157.291C289.797 155.21 289.988 153.026 289.745 150.869C289.659 149.66 289.505 148.457 289.284 147.265L308.226 133.243C305.749 142.449 302.709 159.529 308.823 166.241Z" fill="#E4897B"/>
<path opacity="0.2" d="M303.836 142.158C303.085 153.517 293.742 156.659 289.164 157.291C289.78 155.21 289.971 153.026 289.728 150.869L303.836 142.158Z" fill="black"/>
<path d="M306.04 159.033L287.935 167.198L286.859 160.656L280.215 162.945C279.051 163.353 278.06 164.141 277.399 165.183C276.739 166.224 276.449 167.457 276.577 168.684L277.328 175.857L286.517 170.836L291.095 177.309L312.855 166.839L306.04 159.033Z" fill="#39A9CB"/>
<path opacity="0.3" d="M306.04 159.033L287.935 167.198L286.859 160.656L280.215 162.945C279.051 163.353 278.06 164.141 277.399 165.183C276.739 166.224 276.449 167.457 276.577 168.684L277.328 175.857L286.517 170.836L291.095 177.309L312.855 166.839L306.04 159.033Z" fill="white"/>
<path d="M274.937 104.719C274.937 104.719 269.813 122.448 278.472 130.681C287.132 138.913 291.607 105.232 291.607 105.232L274.937 104.719Z" fill="#263238"/>
<path opacity="0.2" d="M274.937 104.719C274.937 104.719 269.813 122.448 278.472 130.681C287.132 138.913 291.607 105.232 291.607 105.232L274.937 104.719Z" fill="white"/>
<path d="M274.8 140.877C274.988 141.509 275.193 142.141 275.432 142.739C277.179 147.096 280.511 150.629 284.758 152.628C288.567 154.458 292.922 154.799 296.97 153.585C299.854 152.677 302.439 151.007 304.451 148.751C310.839 141.817 310.378 134.08 310.651 120.962C310.771 117.897 310.103 114.853 308.711 112.12C307.319 109.387 305.249 107.057 302.7 105.352C300.15 103.647 297.206 102.625 294.148 102.383C291.091 102.14 288.022 102.686 285.236 103.968C272.597 109.655 271.538 129.195 274.8 140.877Z" fill="#E4897B"/>
<path d="M290.907 125.369C291.009 126.411 290.411 127.316 289.711 127.333C289.011 127.35 288.413 126.513 288.362 125.454C288.311 124.395 288.874 123.49 289.557 123.473C290.241 123.456 290.855 124.293 290.907 125.369Z" fill="#263238"/>
<path d="M278.831 125.83C278.951 126.889 278.336 127.794 277.635 127.811C276.935 127.828 276.354 126.991 276.303 125.915C276.252 124.839 276.798 123.968 277.499 123.951C278.199 123.934 278.797 124.822 278.831 125.83Z" fill="#263238"/>
<path d="M282.691 126.223C281.542 129.537 279.938 132.676 277.926 135.548C278.676 136.035 279.522 136.353 280.406 136.483C281.29 136.613 282.192 136.55 283.05 136.3L282.691 126.223Z" fill="#DE5753"/>
<path d="M274.168 120.842C274.265 120.905 274.378 120.938 274.493 120.938C274.608 120.938 274.72 120.905 274.817 120.842C275.46 120.391 276.197 120.092 276.973 119.971C277.749 119.85 278.543 119.908 279.292 120.142C279.367 120.176 279.448 120.194 279.53 120.196C279.613 120.198 279.694 120.183 279.771 120.153C279.847 120.123 279.917 120.078 279.975 120.02C280.034 119.962 280.08 119.894 280.112 119.818C280.175 119.666 280.177 119.495 280.116 119.342C280.056 119.189 279.938 119.065 279.788 118.998C278.849 118.673 277.847 118.576 276.864 118.716C275.881 118.856 274.945 119.227 274.134 119.801C273.994 119.892 273.896 120.034 273.86 120.197C273.825 120.361 273.856 120.531 273.946 120.672C274.006 120.745 274.082 120.803 274.168 120.842Z" fill="#263238"/>
<path d="M293.11 120.467C293.234 120.454 293.353 120.407 293.451 120.33C293.564 120.21 293.627 120.051 293.627 119.886C293.627 119.721 293.564 119.562 293.451 119.442C292.683 118.805 291.774 118.363 290.798 118.151C289.823 117.94 288.812 117.967 287.849 118.229C287.695 118.284 287.567 118.396 287.494 118.543C287.421 118.689 287.407 118.859 287.456 119.015C287.514 119.171 287.63 119.298 287.779 119.372C287.929 119.445 288.1 119.458 288.259 119.408C289.024 119.232 289.82 119.235 290.584 119.416C291.348 119.596 292.06 119.95 292.666 120.45C292.808 120.505 292.964 120.511 293.11 120.467Z" fill="#263238"/>
<path d="M300.42 104.975L299.652 110.748C300.628 111.22 301.39 112.044 301.783 113.056C302.176 114.067 302.171 115.189 301.77 116.197C299.857 121.048 302.538 128.614 306.245 131.654C306.245 131.654 306.381 129.553 308.157 130.066C309.934 130.578 309.319 141.561 305.8 146.753C305.8 146.753 311.095 142.073 314.17 130.578C317.022 119.954 317.449 111.073 315.297 106.939L300.42 104.975Z" fill="#263238"/>
<path d="M285.048 143.183C284.97 143.208 284.887 143.208 284.809 143.183C284.717 143.118 284.653 143.019 284.63 142.908C284.608 142.797 284.629 142.681 284.689 142.585C286.076 140.525 288.164 139.038 290.565 138.401C290.621 138.388 290.679 138.387 290.736 138.398C290.792 138.409 290.846 138.431 290.894 138.462C290.942 138.494 290.983 138.536 291.014 138.584C291.046 138.632 291.067 138.686 291.077 138.742C291.098 138.851 291.076 138.963 291.015 139.055C290.955 139.148 290.861 139.213 290.753 139.238C288.574 139.839 286.679 141.195 285.407 143.064C285.36 143.109 285.303 143.143 285.241 143.164C285.179 143.184 285.113 143.191 285.048 143.183Z" fill="#263238"/>
<path opacity="0.1" d="M279.121 148.529C280.718 150.247 282.632 151.639 284.758 152.628C288.567 154.458 292.922 154.799 296.97 153.585C295.17 151.969 292.98 150.85 290.616 150.34C286.858 149.34 283.005 148.733 279.121 148.529Z" fill="black"/>
<path opacity="0.2" d="M300.42 104.975L299.652 110.748C300.628 111.22 301.39 112.044 301.783 113.056C302.176 114.067 302.171 115.189 301.77 116.197C299.857 121.048 302.538 128.614 306.245 131.654C306.245 131.654 306.381 129.553 308.157 130.066C309.934 130.578 309.319 141.561 305.8 146.753C305.8 146.753 311.095 142.073 314.17 130.578C317.022 119.954 317.449 111.073 315.297 106.939L300.42 104.975Z" fill="white"/>
<path d="M316.202 109.587C316.202 109.587 317.62 102.003 305.681 96.0765C293.742 90.1498 280.659 96.9135 272.682 91.8066C264.706 86.6996 264.415 107.691 281.461 110.048C293.013 111.387 304.69 111.232 316.202 109.587Z" fill="#263238"/>
<path opacity="0.3" d="M316.202 109.587C316.202 109.587 317.62 102.003 305.681 96.0765C293.742 90.1498 280.659 96.9135 272.682 91.8066C264.706 86.6996 264.415 107.691 281.461 110.048C293.013 111.387 304.69 111.232 316.202 109.587Z" fill="white"/>
<path d="M316.783 131.5C315.46 134.507 313.005 136.87 309.951 138.076C305.852 139.613 303.426 136.044 304.212 131.979C304.963 128.358 307.97 123.08 312.257 123.319C316.544 123.558 318.388 127.76 316.783 131.5Z" fill="#E4897B"/>
<path d="M296.509 173.773L294.698 164.14C294.698 164.14 298.456 160.588 298.012 157.308C297.568 154.029 280.932 148.598 277.926 148.375C274.92 148.153 276.098 160.178 277.003 162.381C277.909 164.584 287.935 167.215 287.935 167.215L289.182 177.377L296.509 173.773Z" fill="#E4897B"/>
<path opacity="0.2" d="M326.501 208.787C327.372 208.36 328.209 207.916 328.961 207.472C331.437 192.322 333.829 179.888 334.956 174.183C335.008 173.872 335.008 173.555 334.956 173.244C324.161 184.244 307.355 202.639 309.336 208.787H326.501Z" fill="black"/>
<path d="M320.643 208.787C333.06 197.651 343.855 182.296 336.22 171.929C329.524 162.808 312.308 195.841 307.064 198.112C301.821 200.384 297.277 170.084 297.277 170.084L287.029 173.124C287.029 173.124 288.908 194.953 294.169 208.787H320.643Z" fill="#39A9CB"/>
<path opacity="0.6" d="M320.643 208.787C333.06 197.651 343.855 182.296 336.22 171.929C329.524 162.808 312.308 195.841 307.064 198.112C301.821 200.384 297.277 170.084 297.277 170.084L287.029 173.124C287.029 173.124 288.908 194.953 294.169 208.787H320.643Z" fill="white"/>
<path d="M398.049 208.787C401.653 205.149 403.993 202.587 403.993 202.587L402.012 172.305C396.307 175.345 379.21 198.164 370.226 208.787H398.049Z" fill="#39A9CB"/>
<path opacity="0.5" d="M398.049 208.787C401.653 205.149 403.993 202.587 403.993 202.587L402.012 172.305C396.307 175.345 379.21 198.164 370.226 208.787H398.049Z" fill="white"/>
<path opacity="0.2" d="M398.032 208.787C401.653 205.149 403.993 202.587 403.993 202.587L403.532 195.397L401.192 188.428C395.932 193.888 393.046 201.207 393.165 208.787H398.032Z" fill="black"/>
<path d="M457.915 208.787C458.752 205.781 459.623 202.587 460.784 199.103C461.946 195.619 462.988 192.117 464.286 188.206C465.254 185.257 466.318 182.126 467.48 178.812C460.547 176.597 453.463 174.884 446.283 173.688C438.721 172.341 431.073 171.536 423.396 171.28C413.473 171.28 402.046 172.305 402.046 172.305C402.046 172.305 400.338 172.697 399.399 183.236C398.904 188.548 398.408 196.746 398.374 208.856L457.915 208.787Z" fill="#39A9CB"/>
<path opacity="0.5" d="M457.915 208.787C458.752 205.781 459.623 202.587 460.784 199.103C461.946 195.619 462.988 192.117 464.286 188.206C465.254 185.257 466.318 182.126 467.48 178.812C460.547 176.597 453.463 174.884 446.283 173.688C438.721 172.341 431.073 171.536 423.396 171.28C413.473 171.28 402.046 172.305 402.046 172.305C402.046 172.305 400.338 172.697 399.399 183.236C398.904 188.548 398.408 196.746 398.374 208.856L457.915 208.787Z" fill="white"/>
<path d="M426.18 208.787L440.186 183.714L423.994 192.783L414.6 180.998L418.033 208.787H426.18Z" fill="#263238"/>
<path d="M440.732 170.511C449.99 172.697 452.791 180.11 451.766 186.857L445.019 184.602C437.244 187.416 429.95 191.414 423.396 196.456C423.396 196.456 418.272 187.062 413.387 183.987L406.453 184.807C406.453 184.807 417.264 165.011 440.732 170.511Z" fill="#263238"/>
<path opacity="0.1" d="M440.732 170.511C449.99 172.697 452.791 180.11 451.766 186.857L445.019 184.602C437.244 187.416 429.95 191.414 423.396 196.456C423.396 196.456 418.272 187.062 413.387 183.987L406.453 184.807C406.453 184.807 417.264 165.011 440.732 170.511Z" fill="white"/>
<path d="M423.943 173.466C424.441 173.201 424.961 172.978 425.497 172.8C426.675 171.878 428.11 169.623 428.042 164.26C427.988 162.119 427.788 159.985 427.444 157.872L442.594 155.054C442.594 155.054 437.47 165.302 441.74 172.8C443.209 173.466 444.097 174.405 443.943 175.635C442.799 184.38 423.994 192.852 423.994 192.852C423.994 192.852 414.856 178.487 423.943 173.466Z" fill="#EEC1BB"/>
<path opacity="0.2" d="M427.444 157.821C427.788 159.934 427.988 162.068 428.042 164.209C438.29 164.209 442.594 155.002 442.594 155.002L427.444 157.821Z" fill="black"/>
<path d="M434.208 107.845C434.208 107.845 416.445 105.59 413.165 119.801C412.228 123.858 412.461 128.097 413.837 132.028C415.212 135.958 417.674 139.417 420.937 142.005L434.208 107.845Z" fill="#263238"/>
<path d="M435.813 115.462C422.645 114.745 418.033 121.56 416.325 135.07C414.19 151.962 417.281 164.209 433.952 161.493C456.566 157.821 457.676 116.658 435.813 115.462Z" fill="#EEC1BB"/>
<path d="M424.865 134.797C423.708 136.703 422.326 138.464 420.749 140.04C421.102 140.615 421.61 141.08 422.213 141.381C422.817 141.683 423.493 141.81 424.165 141.748L424.865 134.797Z" fill="#D4827D"/>
<path d="M432.995 134.165C432.91 135.241 433.422 136.163 434.14 136.214C434.857 136.266 435.506 135.446 435.591 134.37C435.677 133.294 435.164 132.371 434.447 132.303C433.73 132.235 433.081 133.089 432.995 134.165Z" fill="#263238"/>
<path d="M434.737 132.389L432.466 131.278C432.466 131.278 433.473 133.345 434.737 132.389Z" fill="#263238"/>
<path d="M419.57 132.884C419.57 133.96 420.014 134.882 420.732 134.951C421.449 135.019 422.098 134.165 422.183 133.089C422.269 132.013 421.756 131.091 421.039 131.039C420.322 130.988 419.656 131.808 419.57 132.884Z" fill="#263238"/>
<path d="M421.33 131.108L419.058 129.997C419.058 129.997 420.066 132.081 421.33 131.108Z" fill="#263238"/>
<path d="M439.212 127.965C439.122 127.965 439.033 127.943 438.953 127.902C438.872 127.86 438.803 127.8 438.751 127.726C438.109 127.017 437.314 126.462 436.426 126.105C435.539 125.747 434.582 125.594 433.627 125.659C433.475 125.665 433.326 125.614 433.209 125.516C433.093 125.418 433.016 125.28 432.995 125.13C432.986 124.974 433.038 124.82 433.14 124.702C433.242 124.584 433.386 124.511 433.542 124.498C434.689 124.416 435.839 124.604 436.901 125.045C437.962 125.487 438.906 126.171 439.656 127.043C439.746 127.168 439.784 127.324 439.762 127.477C439.739 127.629 439.659 127.768 439.537 127.862C439.438 127.922 439.327 127.957 439.212 127.965Z" fill="#263238"/>
<path d="M418.768 125.369C418.667 125.367 418.568 125.34 418.481 125.289C418.395 125.238 418.322 125.166 418.272 125.078C418.232 125.012 418.206 124.939 418.195 124.863C418.183 124.787 418.187 124.709 418.206 124.634C418.225 124.559 418.259 124.489 418.306 124.428C418.352 124.366 418.41 124.314 418.477 124.276C419.326 123.708 420.292 123.339 421.303 123.194C422.314 123.049 423.344 123.133 424.319 123.439C424.388 123.47 424.451 123.515 424.503 123.57C424.555 123.626 424.596 123.691 424.623 123.763C424.65 123.834 424.663 123.91 424.66 123.986C424.658 124.063 424.64 124.138 424.609 124.207C424.583 124.279 424.542 124.345 424.489 124.4C424.436 124.456 424.372 124.499 424.302 124.528C424.231 124.557 424.155 124.571 424.078 124.569C424.001 124.566 423.926 124.548 423.857 124.515C423.053 124.279 422.207 124.226 421.379 124.359C420.552 124.492 419.765 124.808 419.075 125.283C418.98 125.335 418.875 125.364 418.768 125.369Z" fill="#263238"/>
<path d="M449.016 138.435C449.016 138.435 443.465 127.282 444.849 118.981C444.849 118.981 419.348 106.888 416.598 133.311C416.598 133.311 415.352 109.655 438 110.372C460.648 111.09 458.752 144.191 446.54 153.414C446.488 153.414 452.432 145.404 449.016 138.435Z" fill="#263238"/>
<path d="M431.936 106.82C431.936 106.82 421.125 104.155 418.05 107.025C414.976 109.894 436.838 130.1 448.282 132.132C448.282 132.132 452.159 144.789 449.085 150.715C449.085 150.715 461.963 146.223 462.561 126.616C463.158 107.008 442.577 99.7487 431.936 106.82Z" fill="#263238"/>
<path d="M446.693 141.099C446.796 140.348 447.046 139.624 447.429 138.969C447.812 138.314 448.32 137.741 448.924 137.283C449.528 136.824 450.217 136.49 450.951 136.298C451.685 136.105 452.449 136.06 453.201 136.163C457.249 136.829 458.735 145.318 448.47 146.77C447.001 146.975 446.266 145.506 446.693 141.099Z" fill="#EEC1BB"/>
<path d="M452.432 114.574C452.432 114.574 456.924 103.148 468.966 103.95C481.007 104.753 482.852 123.558 476.515 137.444C470.178 151.33 474.482 155.822 474.482 155.822C474.482 155.822 467.736 155.003 467.736 142.551C467.367 145.187 467.23 147.851 467.326 150.511C467.326 150.511 462.834 144.174 467.121 132.132C471.408 120.091 457.727 125.608 457.727 125.608L452.432 114.574Z" fill="#263238"/>
<path d="M440.117 132.508C440.056 132.523 439.991 132.523 439.929 132.508C424.558 126.974 418.597 108.442 418.528 108.255C418.485 108.105 418.502 107.945 418.576 107.808C418.649 107.671 418.773 107.567 418.921 107.52C418.994 107.496 419.071 107.487 419.147 107.493C419.224 107.499 419.298 107.52 419.367 107.555C419.435 107.59 419.496 107.638 419.545 107.697C419.595 107.755 419.632 107.823 419.656 107.896C419.656 108.084 425.463 126.069 440.322 131.415C440.468 131.469 440.587 131.578 440.654 131.718C440.721 131.858 440.731 132.019 440.681 132.167C440.633 132.274 440.553 132.364 440.452 132.425C440.352 132.486 440.235 132.515 440.117 132.508Z" fill="#263238"/>
<path d="M427.256 150.084H426.812C426.735 150.084 426.659 150.068 426.588 150.038C426.518 150.007 426.454 149.963 426.401 149.907C426.348 149.851 426.307 149.784 426.281 149.712C426.255 149.64 426.244 149.563 426.248 149.486C426.257 149.33 426.326 149.184 426.441 149.079C426.556 148.974 426.708 148.917 426.863 148.922C429.516 148.916 432.063 147.881 433.969 146.036C434.078 145.927 434.225 145.866 434.379 145.866C434.532 145.866 434.68 145.927 434.789 146.036C434.897 146.144 434.958 146.292 434.958 146.445C434.958 146.599 434.897 146.747 434.789 146.855C432.775 148.843 430.084 149.996 427.256 150.084Z" fill="#263238"/>
<path d="M429.152 139.596C428.429 139.651 427.707 139.487 427.079 139.125C426.451 138.763 425.947 138.22 425.632 137.568C425.318 136.915 425.207 136.182 425.315 135.466C425.423 134.749 425.745 134.082 426.238 133.551C426.731 133.019 427.373 132.649 428.08 132.489C428.786 132.328 429.525 132.384 430.199 132.65C430.874 132.915 431.452 133.378 431.859 133.977C432.267 134.577 432.484 135.285 432.483 136.009C432.506 136.465 432.437 136.921 432.281 137.35C432.125 137.778 431.885 138.171 431.574 138.506C431.264 138.84 430.89 139.109 430.474 139.296C430.058 139.483 429.608 139.585 429.152 139.596ZM429.152 133.277C428.599 133.221 428.042 133.335 427.555 133.603C427.068 133.87 426.674 134.279 426.423 134.775C426.173 135.271 426.079 135.831 426.154 136.382C426.228 136.933 426.468 137.448 426.841 137.86C427.214 138.271 427.703 138.56 428.244 138.689C428.785 138.817 429.352 138.778 429.87 138.578C430.388 138.378 430.834 138.025 431.148 137.567C431.462 137.108 431.629 136.565 431.629 136.009C431.661 135.319 431.419 134.644 430.955 134.132C430.491 133.62 429.842 133.312 429.152 133.277Z" fill="#263238"/>
<path d="M418.836 139.033C418.116 139.07 417.402 138.891 416.785 138.519C416.168 138.146 415.677 137.597 415.375 136.943C415.074 136.289 414.975 135.559 415.092 134.848C415.209 134.137 415.537 133.477 416.032 132.954C416.528 132.432 417.169 132.069 417.873 131.914C418.577 131.759 419.311 131.819 419.98 132.085C420.65 132.351 421.224 132.812 421.629 133.408C422.034 134.004 422.251 134.708 422.252 135.429C422.277 135.893 422.208 136.357 422.048 136.794C421.888 137.23 421.64 137.629 421.32 137.967C421 138.304 420.615 138.573 420.188 138.756C419.761 138.939 419.301 139.033 418.836 139.033ZM418.836 132.696C418.283 132.644 417.728 132.761 417.243 133.031C416.758 133.301 416.366 133.711 416.118 134.208C415.871 134.704 415.779 135.265 415.856 135.814C415.933 136.364 416.174 136.878 416.548 137.287C416.922 137.697 417.412 137.985 417.952 138.111C418.493 138.238 419.059 138.198 419.576 137.997C420.093 137.796 420.538 137.443 420.851 136.985C421.164 136.526 421.331 135.984 421.329 135.429C421.344 134.747 421.091 134.087 420.625 133.589C420.159 133.091 419.517 132.795 418.836 132.764V132.696Z" fill="#263238"/>
<path d="M426.249 136.437C426.167 136.441 426.085 136.42 426.015 136.377C425.945 136.335 425.89 136.272 425.856 136.198C425.704 135.877 425.488 135.592 425.22 135.36C424.952 135.128 424.64 134.953 424.301 134.848C423.876 134.823 423.45 134.898 423.059 135.067C422.667 135.237 422.321 135.495 422.047 135.822C421.964 135.901 421.854 135.945 421.739 135.945C421.625 135.945 421.515 135.901 421.432 135.822C421.354 135.742 421.31 135.635 421.31 135.523C421.31 135.411 421.354 135.304 421.432 135.224C421.803 134.803 422.27 134.476 422.793 134.272C423.315 134.067 423.879 133.989 424.438 134.045C424.909 134.177 425.347 134.408 425.721 134.723C426.096 135.039 426.398 135.431 426.607 135.873C426.633 135.923 426.648 135.978 426.651 136.034C426.655 136.09 426.647 136.147 426.627 136.199C426.608 136.252 426.578 136.301 426.539 136.341C426.501 136.382 426.454 136.415 426.402 136.437H426.249Z" fill="#263238"/>
<path d="M432.056 136.437C431.945 136.437 431.839 136.394 431.76 136.318C431.68 136.241 431.633 136.137 431.629 136.027C431.628 135.915 431.67 135.806 431.746 135.724C431.822 135.642 431.927 135.591 432.039 135.583C432.722 135.583 448.418 135.087 450.348 135.173C450.463 135.181 450.57 135.234 450.646 135.32C450.723 135.406 450.763 135.519 450.758 135.634C450.749 135.744 450.698 135.847 450.616 135.92C450.533 135.993 450.425 136.031 450.314 136.027C448.401 135.941 432.244 136.437 432.073 136.437H432.056Z" fill="#263238"/>
<path d="M480.068 208.787C473.851 192.459 467.48 178.812 467.48 178.812C467.48 178.812 457.078 193.945 456.139 208.787H480.068Z" fill="#39A9CB"/>
<path opacity="0.5" d="M480.068 208.787C473.851 192.459 467.48 178.812 467.48 178.812C467.48 178.812 457.078 193.945 456.139 208.787H480.068Z" fill="white"/>
<path d="M483.962 336.204C480.546 326.844 477.13 318.919 477.13 318.919L462.851 331.422L465.345 336.204H483.962Z" fill="#E4897B"/>
<path d="M383.139 336.204C386.555 332.071 388.963 329.031 388.963 329.031L375.009 317.45C375.009 317.45 368.177 327.989 362.609 336.238L383.139 336.204Z" fill="#E4897B"/>
<path d="M386.555 336.204L394.838 330.397L391.627 291.83C381.072 293.538 365.734 324.282 365.734 324.282L377.69 336.238L386.555 336.204Z" fill="#39A9CB"/>
<path opacity="0.2" d="M377.707 336.204H386.555L392.498 332.037L394.838 330.329L391.627 291.745C381.072 293.555 365.734 324.197 365.734 324.197L376.29 334.667L377.707 336.204Z" fill="white"/>
<path d="M380.303 336.204L365.734 320.918L363.223 325.119L374.889 336.204H380.303Z" fill="#39A9CB"/>
<path opacity="0.2" d="M386.555 336.204L392.498 332.037L389.68 315.315C389.68 315.315 378.647 322.284 376.29 334.787L377.707 336.204H386.555Z" fill="black"/>
<path d="M463.773 336.204C467.292 314.478 470.725 297.945 470.725 297.945C436.923 289.781 391.542 291.83 391.542 291.83C387.989 304.504 385.888 320.303 384.71 336.238L463.773 336.204Z" fill="#39A9CB"/>
<path opacity="0.2" d="M463.773 336.204C464.012 334.684 464.251 333.181 464.49 331.712C467.753 312.241 470.725 297.945 470.725 297.945C436.923 289.781 391.542 291.83 391.542 291.83C387.989 304.504 385.906 320.303 384.71 336.238L463.773 336.204Z" fill="white"/>
<path opacity="0.2" d="M463.773 336.204C464.012 334.684 464.251 333.181 464.491 331.712L459.503 327.032C458.295 329.961 457.524 333.051 457.215 336.204H463.773Z" fill="black"/>
<path d="M410.791 336.204H416.154C416.739 326.428 418.128 316.717 420.305 307.168L429.784 299.414L422.32 297.006L415.488 297.381L417.316 306.348C417.316 306.348 414.07 320.081 410.791 336.204Z" fill="#263238"/>
<path d="M443.892 293.368C437.641 299.055 422.303 296.954 422.303 296.954C422.303 296.954 412.738 294.324 414.754 291.335C420.39 290.413 423.123 287.782 424.233 284.503C424.854 282.417 425.051 280.228 424.814 278.064C424.723 276.86 424.563 275.663 424.335 274.477L443.294 260.437C440.818 269.609 437.778 286.655 443.892 293.368Z" fill="#E4897B"/>
<path opacity="0.2" d="M438.922 269.268C438.17 280.643 428.828 283.769 424.25 284.418C424.871 282.331 425.068 280.142 424.831 277.979L438.922 269.268Z" fill="black"/>
<path d="M441.108 286.143L423.003 294.324L421.944 287.765L415.283 290.105C414.121 290.514 413.131 291.303 412.474 292.345C411.817 293.386 411.531 294.62 411.662 295.844L412.414 303.035L421.603 297.911L426.18 304.384L447.923 293.914L441.108 286.143Z" fill="#39A9CB"/>
<path opacity="0.3" d="M441.108 286.143L423.003 294.324L421.944 287.765L415.283 290.105C414.121 290.514 413.131 291.303 412.474 292.345C411.817 293.386 411.531 294.62 411.662 295.844L412.414 303.035L421.603 297.911L426.18 304.384L447.923 293.914L441.108 286.143Z" fill="white"/>
<path d="M404.454 234.032C404.454 234.032 401.636 252.273 411.286 259.327C420.937 266.381 421.056 232.409 421.056 232.409L404.454 234.032Z" fill="#263238"/>
<path d="M439.383 273.965C437.342 276.963 434.374 279.21 430.935 280.36C427.495 281.511 423.773 281.502 420.339 280.336C415.883 278.92 412.13 275.868 409.835 271.796C409.515 271.241 409.225 270.671 408.964 270.088C404.232 258.917 402.764 239.344 414.583 232.136C417.188 230.534 420.159 229.623 423.215 229.489C426.271 229.355 429.31 230.003 432.045 231.371C434.781 232.739 437.123 234.781 438.849 237.306C440.575 239.831 441.629 242.754 441.911 245.8C443.38 258.593 444.832 266.21 439.383 273.965Z" fill="#E4897B"/>
<path d="M422.935 252.478C423.191 253.52 422.713 254.476 422.013 254.596C421.313 254.716 420.629 253.947 420.441 252.888C420.254 251.829 420.681 250.89 421.364 250.787C422.047 250.685 422.747 251.419 422.935 252.478Z" fill="#263238"/>
<path d="M411.03 254.476C411.286 255.518 410.791 256.475 410.108 256.594C409.425 256.714 408.707 255.928 408.537 254.886C408.366 253.844 408.776 252.888 409.459 252.768C410.142 252.649 410.859 253.469 411.03 254.476Z" fill="#263238"/>
<path d="M414.856 254.357C414.142 257.788 412.958 261.104 411.338 264.212C412.135 264.594 413.005 264.801 413.889 264.819C414.772 264.837 415.65 264.665 416.462 264.315L414.856 254.357Z" fill="#DE5753"/>
<path d="M405.77 250.138C405.877 250.17 405.99 250.176 406.1 250.155C406.21 250.134 406.313 250.088 406.402 250.019C406.982 249.488 407.677 249.098 408.432 248.879C409.187 248.659 409.983 248.617 410.757 248.755C410.837 248.778 410.92 248.785 411.002 248.775C411.085 248.765 411.164 248.738 411.236 248.697C411.308 248.655 411.37 248.599 411.42 248.533C411.47 248.467 411.506 248.391 411.526 248.311C411.568 248.152 411.547 247.983 411.468 247.84C411.388 247.696 411.256 247.59 411.099 247.542C410.124 247.339 409.116 247.371 408.157 247.636C407.197 247.9 406.315 248.389 405.582 249.062C405.465 249.18 405.399 249.34 405.399 249.506C405.399 249.672 405.465 249.832 405.582 249.95C405.632 250.024 405.696 250.088 405.77 250.138Z" fill="#263238"/>
<path d="M424.506 247.32C424.628 247.295 424.741 247.235 424.831 247.149C424.915 247.005 424.941 246.835 424.903 246.673C424.864 246.511 424.765 246.369 424.626 246.278C423.783 245.746 422.825 245.424 421.832 245.341C420.839 245.258 419.84 245.415 418.921 245.8C418.773 245.873 418.659 246.002 418.605 246.159C418.55 246.315 418.56 246.487 418.631 246.637C418.707 246.782 418.838 246.892 418.994 246.943C419.15 246.994 419.32 246.982 419.468 246.91C420.204 246.636 420.994 246.535 421.776 246.615C422.558 246.695 423.311 246.954 423.977 247.371C424.063 247.403 424.156 247.415 424.247 247.406C424.339 247.397 424.428 247.368 424.506 247.32Z" fill="#263238"/>
<path d="M429.767 231.026V236.85C430.793 237.195 431.65 237.915 432.17 238.864C432.689 239.814 432.831 240.924 432.568 241.974C431.287 247.013 434.925 254.186 438.973 256.731C438.973 256.731 438.854 254.613 440.681 254.903C442.509 255.194 443.329 266.142 440.493 271.761C440.493 271.761 445.139 266.432 446.728 254.681C448.179 243.767 447.479 234.92 444.815 231.094L429.767 231.026Z" fill="#263238"/>
<path d="M449.409 255.177C448.464 258.345 446.302 261.011 443.397 262.589C439.537 264.656 436.65 261.411 436.924 257.278C437.214 253.605 439.52 247.986 443.756 247.662C447.991 247.337 450.519 251.334 449.409 255.177Z" fill="#E4897B"/>
<path d="M417.965 267.508C418.878 268.899 419.689 270.355 420.39 271.864L421.244 271.625C425.07 270.514 426.471 268.721 426.863 267.098C427.046 266.295 427.046 265.46 426.863 264.656C426.754 264.202 426.582 263.765 426.351 263.358C424.301 265.1 421.902 266.381 419.314 267.116C418.477 267.389 417.965 267.508 417.965 267.508Z" fill="#263238"/>
<path d="M419.263 267.133L420.014 268.397C423.618 267.338 425.992 266.108 426.846 264.673C426.737 264.219 426.565 263.782 426.334 263.375C424.274 265.121 421.862 266.403 419.263 267.133Z" fill="white"/>
<path d="M421.244 271.625C425.07 270.515 426.471 268.721 426.864 267.099C425.416 267.545 424.061 268.251 422.867 269.182C422.084 269.807 421.517 270.661 421.244 271.625Z" fill="#DE5753"/>
<path d="M437.555 252.29L435.847 251.282C435.847 251.282 436.924 258.268 434.703 260.232C434.703 260.232 427.017 261.052 424.335 261.77C422.496 262.484 420.975 263.836 420.048 265.578C420.048 265.578 414.019 264.297 411.406 268.824C409.236 266.888 407.522 264.497 406.384 261.821C406.384 261.821 406.589 274.597 413.746 281.395C420.902 288.192 432.534 284.811 438 279.499C443.465 274.187 437.555 252.29 437.555 252.29ZM432.431 272.428C431.97 273.112 431.338 273.664 430.598 274.028C429.857 274.393 429.035 274.557 428.211 274.505C427.388 274.454 426.592 274.187 425.903 273.733C425.214 273.278 424.656 272.652 424.284 271.915L421.893 273.23C421.893 273.23 424.523 275.451 422.525 277.5C420.527 279.55 414.344 278.815 413.712 272.923C413.08 267.03 420.544 266.364 420.544 266.364C421.474 265.424 422.584 264.681 423.808 264.18C425.032 263.678 426.344 263.427 427.666 263.443C428.695 263.485 429.695 263.794 430.568 264.34C431.441 264.886 432.157 265.65 432.645 266.557C433.133 267.464 433.376 268.482 433.35 269.512C433.325 270.541 433.032 271.546 432.5 272.428H432.431Z" fill="#263238"/>
<path d="M429.75 236.85C429.75 236.85 400.714 246.756 404.13 227.183C404.13 227.183 419.792 217.959 433.439 220.539C447.086 223.118 446.027 237.277 446.027 237.277L429.75 236.85Z" fill="#263238"/>
<path d="M487.702 336.204C485.994 330.636 476.413 300.917 470.725 297.945C467.365 301.113 464.666 304.916 462.783 309.132C458.906 317.023 458.069 332.839 458.069 332.839L460.579 336.255L487.702 336.204Z" fill="#39A9CB"/>
<path opacity="0.2" d="M487.702 336.204C485.994 330.636 476.413 300.917 470.725 297.945C467.365 301.113 464.666 304.916 462.783 309.132C458.906 317.023 458.069 332.839 458.069 332.839L460.579 336.255L487.702 336.204Z" fill="white"/>
<path opacity="0.6" d="M641.815 211.537H499.556V336.187H641.815V211.537Z" fill="white"/>
<path d="M535.253 336.204C540.633 330.978 544.391 326.844 544.391 326.844L542.409 296.579C536.056 299.995 515.509 327.972 507.874 336.204H535.253Z" fill="#263238"/>
<path opacity="0.3" d="M535.253 336.204C540.633 330.978 544.391 326.844 544.391 326.844L542.409 296.579C536.056 299.995 515.509 327.972 507.874 336.204H535.253Z" fill="white"/>
<path opacity="0.2" d="M535.253 336.204C540.633 330.995 544.391 326.844 544.391 326.844L543.93 319.671L541.658 312.685C538.687 315.776 536.445 319.492 535.094 323.562C533.744 327.631 533.32 331.95 533.853 336.204H535.253Z" fill="black"/>
<path d="M599.662 257.261C598.193 262.897 606.255 278.474 602.992 306.792C599.73 335.111 568.644 333.403 554.673 323.872C540.702 314.342 543.127 263.17 547.926 253.059C552.726 242.947 599.662 257.261 599.662 257.261Z" fill="#263238"/>
<path d="M597.459 336.204C598.483 332.327 599.713 328.074 601.182 323.36C602.23 319.944 603.397 316.317 604.683 312.48C605.663 309.576 606.722 306.417 607.86 303.001C600.925 300.793 593.842 299.081 586.664 297.877C579.088 296.545 571.43 295.74 563.743 295.468C553.819 295.468 542.393 296.51 542.393 296.51C542.393 296.51 540.77 296.886 539.762 307.424C539.216 313.197 538.669 322.352 538.737 336.136L597.459 336.204Z" fill="#263238"/>
<path opacity="0.3" d="M597.459 336.204C598.483 332.327 599.713 328.074 601.182 323.36C602.23 319.944 603.397 316.317 604.683 312.48C605.663 309.576 606.722 306.417 607.86 303.001C600.925 300.793 593.842 299.081 586.664 297.877C579.088 296.545 571.43 295.74 563.743 295.468C553.819 295.468 542.393 296.51 542.393 296.51C542.393 296.51 540.77 296.886 539.762 307.424C539.216 313.197 538.669 322.352 538.737 336.136L597.459 336.204Z" fill="white"/>
<path d="M572.931 294.068C579.063 294.444 588.867 294.375 595.135 304.179H583.521L589.841 311.899C589.841 311.899 569.498 316.75 563.145 330.09C563.145 330.09 554.024 314.274 549.071 310.601C552.092 307.593 555.546 305.054 559.319 303.069C556.031 301.665 552.592 300.645 549.071 300.029C549.071 300.029 564.648 293.573 572.931 294.068Z" fill="white"/>
<path d="M584.341 299.824C584.341 299.824 568.593 317.587 563.725 326.161C561.512 316.781 561.742 306.99 564.392 297.723L584.341 299.824Z" fill="#39A9CB"/>
<path opacity="0.6" d="M584.341 299.824C584.341 299.824 568.593 317.587 563.725 326.161C561.512 316.781 561.742 306.99 564.392 297.723L584.341 299.824Z" fill="white"/>
<path d="M567.978 306.81C580.566 305.204 584.341 299.824 584.341 299.824C576.348 292.292 582.992 279.328 582.992 279.328L567.842 282.163C568.186 284.271 568.386 286.399 568.44 288.534C568.542 297.723 564.392 297.808 564.392 297.808C561.744 302.71 567.978 306.81 567.978 306.81Z" fill="#EEC1BB"/>
<path opacity="0.2" d="M567.842 282.078C568.186 284.185 568.386 286.314 568.44 288.449C578.688 288.449 582.992 279.242 582.992 279.242L567.842 282.078Z" fill="black"/>
<path d="M576.211 239.805C563.042 239.087 558.431 245.902 556.723 259.413C554.588 276.305 557.679 288.551 574.349 285.835C596.963 282.061 598.073 240.915 576.211 239.805Z" fill="#EEC1BB"/>
<path d="M565.263 259.054C564.11 260.968 562.727 262.735 561.146 264.314C561.5 264.889 562.007 265.354 562.611 265.655C563.215 265.957 563.89 266.084 564.562 266.022L565.263 259.054Z" fill="#D4827D"/>
<path d="M573.393 258.422C573.307 259.515 573.82 260.42 574.537 260.489C575.255 260.557 575.904 259.703 575.989 258.627C576.074 257.551 575.562 256.629 574.845 256.577C574.127 256.526 573.478 257.346 573.393 258.422Z" fill="#263238"/>
<path d="M575.135 256.646L572.863 255.552C572.863 255.552 573.871 257.619 575.135 256.646Z" fill="#263238"/>
<path d="M560.036 257.158C559.951 258.234 560.463 259.156 561.181 259.208C561.898 259.259 562.547 258.439 562.632 257.363C562.718 256.287 562.205 255.348 561.488 255.296C560.771 255.245 560.036 256.065 560.036 257.158Z" fill="#263238"/>
<path d="M561.744 255.382L559.472 254.271C559.472 254.271 560.463 256.338 561.744 255.382Z" fill="#263238"/>
<path d="M579.627 252.239C579.532 252.242 579.438 252.219 579.354 252.174C579.27 252.129 579.199 252.063 579.149 251.983C578.508 251.273 577.712 250.719 576.824 250.364C575.936 250.008 574.979 249.861 574.025 249.933C573.87 249.938 573.719 249.885 573.602 249.784C573.484 249.682 573.41 249.541 573.393 249.387C573.383 249.231 573.435 249.077 573.537 248.959C573.639 248.841 573.784 248.768 573.939 248.755C575.086 248.674 576.236 248.863 577.297 249.304C578.359 249.746 579.303 250.429 580.054 251.3C580.144 251.425 580.181 251.581 580.159 251.734C580.137 251.886 580.056 252.025 579.934 252.119C579.844 252.186 579.738 252.227 579.627 252.239Z" fill="#263238"/>
<path d="M559.165 249.643C559.065 249.641 558.966 249.614 558.879 249.563C558.792 249.512 558.72 249.44 558.67 249.352C558.63 249.286 558.604 249.213 558.592 249.137C558.581 249.06 558.585 248.983 558.604 248.908C558.623 248.833 558.657 248.763 558.703 248.702C558.75 248.64 558.808 248.588 558.875 248.55C559.72 247.974 560.687 247.6 561.7 247.458C562.713 247.316 563.745 247.409 564.716 247.73C564.857 247.794 564.967 247.909 565.025 248.052C565.082 248.196 565.082 248.355 565.024 248.498C564.96 248.639 564.844 248.749 564.701 248.807C564.558 248.864 564.398 248.864 564.255 248.806C563.453 248.561 562.606 248.501 561.777 248.631C560.949 248.761 560.161 249.078 559.473 249.557C559.378 249.609 559.273 249.638 559.165 249.643Z" fill="#263238"/>
<path d="M566.168 271.283C566.704 272.8 567.132 274.352 567.449 275.929C567.733 275.946 568.019 275.946 568.303 275.929C572.163 275.758 573.888 274.409 574.64 272.957C574.979 272.236 575.148 271.448 575.135 270.651C575.137 270.202 575.079 269.754 574.964 269.319C572.637 270.487 570.085 271.139 567.483 271.232L566.168 271.283Z" fill="#263238"/>
<path d="M567.483 271.198L567.893 272.564C571.514 272.376 574.059 271.779 575.135 270.617C575.137 270.167 575.079 269.719 574.964 269.285C572.637 270.453 570.085 271.105 567.483 271.198Z" fill="white"/>
<path d="M568.303 275.895C572.163 275.724 573.888 274.375 574.64 272.923C573.171 273.015 571.731 273.368 570.387 273.965C569.507 274.374 568.778 275.049 568.303 275.895Z" fill="#DE5753"/>
<path d="M589.397 262.692C589.397 262.692 583.828 251.539 585.212 243.238C585.212 243.238 559.712 231.162 556.979 257.568C556.979 257.568 555.715 233.912 578.363 234.63C601.011 235.347 599.115 268.448 586.903 277.671C586.886 277.671 592.83 269.678 589.397 262.692Z" fill="#263238"/>
<path d="M587.091 265.425C587.194 264.673 587.444 263.949 587.827 263.294C588.209 262.64 588.717 262.066 589.322 261.608C589.926 261.15 590.615 260.815 591.349 260.623C592.082 260.431 592.847 260.385 593.598 260.489C597.646 261.155 599.132 269.643 588.867 271.095C587.364 271.249 586.664 269.78 587.091 265.425Z" fill="#EEC1BB"/>
<path d="M581.711 241.94C580.818 252.827 583.511 263.708 589.38 272.923C596.792 284.11 588.286 293.897 588.286 293.897C588.286 293.897 605.862 287.834 598.193 262.897C598.193 262.897 606.46 240.607 590.199 234.612C590.199 234.612 590.114 227.78 575.408 229.113C560.702 230.445 548.883 242.999 546.628 259.054C544.374 275.109 552.76 293.026 552.76 293.026C552.76 293.026 543.861 236.115 581.711 241.94Z" fill="#263238"/>
<path d="M582.531 242.196C581.562 246.01 581.193 249.951 581.437 253.879C581.668 257.856 582.304 261.799 583.333 265.647C584.357 269.522 585.843 273.261 587.757 276.783C589.632 280.336 592.158 283.505 595.204 286.126C592.05 283.594 589.397 280.495 587.381 276.988C585.324 273.494 583.69 269.767 582.513 265.886C581.315 261.993 580.525 257.986 580.156 253.93C579.755 249.818 580.003 245.668 580.891 241.632L582.531 242.196Z" fill="#263238"/>
<path opacity="0.2" d="M597.458 336.204C597.68 335.384 597.902 334.496 598.142 333.711C596.553 328.143 594.914 332.498 594.914 332.498C594.649 333.721 594.455 334.959 594.333 336.204H597.458Z" fill="black"/>
<path d="M619.68 336.204C613.736 320.354 607.86 303.001 607.86 303.001C595.665 307.817 594.999 332.771 594.999 332.771L596.912 336.187L619.68 336.204Z" fill="#263238"/>
<path opacity="0.3" d="M619.68 336.204C613.736 320.354 607.86 303.001 607.86 303.001C595.665 307.817 594.999 332.771 594.999 332.771L596.912 336.187L619.68 336.204Z" fill="white"/>
<path opacity="0.5" d="M350.755 211.537H208.496V336.187H350.755V211.537Z" fill="white"/>
<path d="M281.581 231.811L267.302 246.107H264.347V231.811H281.581Z" fill="white"/>
<path d="M284.57 236.081V246.107H274.544L284.57 236.081Z" fill="white"/>
<path d="M291.778 244.724L286.363 243.016V235.125L291.778 233.417V244.724Z" fill="white"/>
<path d="M278.062 259.208C273.375 259.209 268.833 257.584 265.209 254.611C261.586 251.638 259.105 247.501 258.19 242.904C257.276 238.307 257.984 233.535 260.193 229.401C262.403 225.268 265.978 222.028 270.308 220.235C274.639 218.442 279.457 218.206 283.942 219.567C288.427 220.929 292.301 223.803 294.904 227.701C297.507 231.599 298.678 236.279 298.217 240.944C297.756 245.608 295.691 249.968 292.375 253.281C290.5 255.166 288.269 256.66 285.812 257.677C283.355 258.694 280.721 259.215 278.062 259.208ZM278.062 220.419C275.01 220.417 272.005 221.167 269.313 222.605C266.62 224.042 264.324 226.121 262.628 228.658C260.932 231.195 259.888 234.112 259.589 237.149C259.289 240.186 259.744 243.25 260.913 246.07C262.081 248.889 263.927 251.377 266.287 253.312C268.647 255.247 271.448 256.57 274.442 257.163C277.436 257.756 280.53 257.602 283.449 256.713C286.369 255.824 289.024 254.229 291.18 252.068C293.769 249.473 295.531 246.169 296.243 242.574C296.956 238.978 296.587 235.252 295.184 231.866C293.78 228.48 291.405 225.585 288.358 223.548C285.31 221.511 281.728 220.422 278.062 220.419Z" fill="white"/>
<path d="M291.174 224.654L263.746 252.082L264.954 253.29L292.382 225.862L291.174 224.654Z" fill="white"/>
<path d="M47.2091 563.983L89.5333 559.833V500.343H106.306V559.816L148.818 563.983C150.855 564.187 152.744 565.14 154.117 566.659C155.49 568.177 156.249 570.151 156.248 572.199V578.552H39.7622V572.199C39.7648 570.15 40.5281 568.175 41.904 566.657C43.2799 565.139 45.1705 564.186 47.2091 563.983Z" fill="#263238"/>
<path opacity="0.3" d="M47.2091 563.983L89.5333 559.833V500.343H106.306V559.816L148.818 563.983C150.855 564.187 152.744 565.14 154.117 566.659C155.49 568.177 156.249 570.151 156.248 572.199V578.552H39.7622V572.199C39.7648 570.15 40.5281 568.175 41.904 566.657C43.2799 565.139 45.1705 564.186 47.2091 563.983Z" fill="white"/>
<path d="M140.807 586.426C140.807 588.595 141.451 590.715 142.655 592.518C143.86 594.322 145.573 595.727 147.577 596.557C149.58 597.387 151.785 597.604 153.912 597.181C156.039 596.758 157.993 595.714 159.527 594.18C161.06 592.646 162.104 590.693 162.528 588.566C162.951 586.438 162.733 584.234 161.904 582.23C161.074 580.226 159.668 578.514 157.865 577.309C156.062 576.104 153.942 575.461 151.773 575.461C148.865 575.461 146.076 576.616 144.019 578.673C141.963 580.729 140.807 583.518 140.807 586.426Z" fill="#39A9CB"/>
<path d="M55.2197 586.426C55.223 588.598 54.5822 590.723 53.3783 592.531C52.1743 594.339 50.4613 595.749 48.4558 596.583C46.4503 597.418 44.2424 597.639 42.1114 597.218C39.9803 596.798 38.0218 595.755 36.4835 594.221C34.9452 592.688 33.8962 590.732 33.4691 588.603C33.0421 586.473 33.2561 584.264 34.0842 582.256C34.9123 580.248 36.3173 578.531 38.1215 577.321C39.9257 576.112 42.048 575.464 44.2201 575.461C45.6624 575.459 47.0909 575.741 48.4242 576.29C49.7575 576.84 50.9695 577.647 51.9909 578.666C53.0123 579.684 53.8231 580.893 54.3771 582.225C54.9311 583.556 55.2174 584.984 55.2197 586.426Z" fill="#39A9CB"/>
<path d="M102.104 513.119H93.6668C91.7959 513.119 90.0017 512.376 88.6788 511.053C87.3559 509.73 86.6127 507.936 86.6127 506.065V460.171H109.21V506.065C109.21 506.996 109.025 507.917 108.668 508.776C108.31 509.636 107.786 510.415 107.125 511.071C106.465 511.727 105.681 512.245 104.82 512.597C103.958 512.948 103.035 513.126 102.104 513.119Z" fill="#263238"/>
<path opacity="0.5" d="M102.104 513.119H93.6668C91.7959 513.119 90.0017 512.376 88.6788 511.053C87.3559 509.73 86.6127 507.936 86.6127 506.065V460.171H109.21V506.065C109.21 506.996 109.025 507.917 108.668 508.776C108.31 509.636 107.786 510.415 107.125 511.071C106.465 511.727 105.681 512.245 104.82 512.597C103.958 512.948 103.035 513.126 102.104 513.119Z" fill="white"/>
<path d="M57.8841 367.136C57.8841 367.136 54.6218 446.473 76.6721 460.137H51.4962C51.4962 460.137 31.9567 433.116 37.4735 367.136H57.8841Z" fill="#263238"/>
<path opacity="0.5" d="M57.8841 367.136C57.8841 367.136 54.6218 446.473 76.6721 460.137H51.4962C51.4962 460.137 31.9567 433.116 37.4735 367.136H57.8841Z" fill="white"/>
<path d="M51.4449 449.035H147.383C149.648 449.035 151.82 449.935 153.422 451.536C155.024 453.138 155.923 455.31 155.923 457.575V466.217H42.9049V457.575C42.9049 455.31 43.8046 453.138 45.4062 451.536C47.0078 449.935 49.18 449.035 51.4449 449.035Z" fill="#39A9CB"/>
<path d="M157.187 457.626H41.6239C39.7279 457.626 38.1909 459.163 38.1909 461.059V462.784C38.1909 464.68 39.7279 466.217 41.6239 466.217H157.187C159.083 466.217 160.62 464.68 160.62 462.784V461.059C160.62 459.163 159.083 457.626 157.187 457.626Z" fill="#39A9CB"/>
<path opacity="0.6" d="M157.187 457.626H41.6239C39.7279 457.626 38.1909 459.163 38.1909 461.059V462.784C38.1909 464.68 39.7279 466.217 41.6239 466.217H157.187C159.083 466.217 160.62 464.68 160.62 462.784V461.059C160.62 459.163 159.083 457.626 157.187 457.626Z" fill="white"/>
<path d="M34.7578 383.26H68.2004C81.9537 383.26 93.103 372.11 93.103 358.357V349.51C93.103 335.756 81.9537 324.607 68.2004 324.607H34.7578C21.0044 324.607 9.85514 335.756 9.85514 349.51V358.357C9.85514 372.11 21.0044 383.26 34.7578 383.26Z" fill="#39A9CB"/>
<path d="M140.961 312.429C145.487 314.291 171.159 347.033 171.825 353.933C172.662 362.303 164.173 363.891 154.933 361.722C145.692 359.553 152.695 350.483 152.695 350.483L138.468 330.568L140.961 312.429Z" fill="#263238"/>
<path d="M136.862 393.969H104.41C104.41 393.969 110.661 351.098 111.686 350.483C112.711 349.868 135.393 348.348 135.393 348.348V372.26L136.862 393.969Z" fill="#263238"/>
<path d="M99.8668 300.797C101.045 300.558 113.428 295.434 120.158 300.61C126.887 305.785 134.471 323.019 122.412 329.27C110.354 335.521 94.9648 332.259 93.1202 322.848C91.2755 313.437 99.8668 300.797 99.8668 300.797Z" fill="#263238"/>
<path d="M90.2166 262.145C90.2166 262.145 82.0865 280.934 87.7741 287.902C93.4618 294.871 130.56 300.405 136.999 293.863C143.438 287.321 135 261.411 135 261.411L90.2166 262.145Z" fill="#263238"/>
<path d="M236.046 537.646L226.378 539.969L221.493 526.629L217.053 514.502L228.052 509.805L232.288 524.528L236.046 537.646Z" fill="#E4897B"/>
<path opacity="0.2" d="M232.288 524.528L221.493 526.629L217.053 514.502L228.052 509.805L232.288 524.528Z" fill="black"/>
<path d="M231.314 517.491L217.924 522.462C217.924 522.462 182.175 433.099 174.831 432.792C167.487 432.484 92.6761 466.849 73.9393 447.788C55.2026 428.727 82.2915 382.781 82.2915 382.781C82.2915 382.781 127.383 376.359 130.782 386.539C131.621 389.539 132.261 392.592 132.695 395.677C133.207 398.785 133.549 401.399 133.549 401.399C134.949 401.057 180.211 389.443 198.043 401.399C216.199 413.662 231.314 517.491 231.314 517.491Z" fill="#263238"/>
<path opacity="0.2" d="M231.314 517.491L217.924 522.462C217.924 522.462 182.175 433.099 174.831 432.792C167.487 432.484 92.6761 466.849 73.9393 447.788C55.2026 428.727 82.2915 382.781 82.2915 382.781C82.2915 382.781 127.383 376.359 130.782 386.539C131.621 389.539 132.261 392.592 132.695 395.677C133.207 398.785 133.549 401.399 133.549 401.399C134.949 401.057 180.211 389.443 198.043 401.399C216.199 413.662 231.314 517.491 231.314 517.491Z" fill="white"/>
<path d="M154.249 575.768L144.616 573.292L146.478 559.491L148.186 546.818L160.091 547.894L156.999 562.651L154.249 575.768Z" fill="#E4897B"/>
<path opacity="0.2" d="M156.931 562.941L146.41 559.747L148.152 546.954L160.074 547.962L156.931 562.941Z" fill="black"/>
<path d="M212.39 517.508L231.895 510.881L232.732 518.875L217.941 524.101L212.39 517.508Z" fill="#263238"/>
<path d="M106.323 452.365C106.323 452.365 109.363 452.451 156.658 450.247C156.658 450.247 149.604 509.361 145.744 553.633L159.886 556.041C159.886 556.041 193.67 461.264 193.311 446.199C192.953 431.135 175.736 426.728 175.736 426.728C175.736 426.728 141.986 446.199 106.323 452.365Z" fill="#263238"/>
<path opacity="0.1" d="M106.323 452.365C106.323 452.365 109.363 452.451 156.658 450.247C156.658 450.247 149.604 509.361 145.744 553.633L159.886 556.041C159.886 556.041 193.67 461.264 193.311 446.199C192.953 431.135 175.736 426.728 175.736 426.728C175.736 426.728 141.986 446.199 106.323 452.365Z" fill="white"/>
<path d="M143.677 549.346L163.114 551.549L159.356 559.167L143.626 557.151L143.677 549.346Z" fill="#263238"/>
<path opacity="0.3" d="M133.548 401.399L107.177 406.898C107.177 406.898 121.763 398.854 132.694 395.677C133.207 398.786 133.548 401.399 133.548 401.399Z" fill="black"/>
<path d="M83.3846 375.779L82.2914 382.799L130.782 386.539L132.063 378.238L83.3846 375.779Z" fill="#263238"/>
<path opacity="0.2" d="M83.3846 375.779L82.2914 382.799L130.782 386.539L132.063 378.238L83.3846 375.779Z" fill="black"/>
<path d="M99.9238 375.315L97.5281 375.068L96.2739 387.267L98.6696 387.514L99.9238 375.315Z" fill="#263238"/>
<path d="M120.687 378.243L110.068 377.56L109.55 385.622L120.169 386.305L120.687 378.243Z" fill="white"/>
<path d="M129.711 376.627L127.315 376.381L126.061 388.58L128.457 388.827L129.711 376.627Z" fill="#263238"/>
<path opacity="0.2" d="M99.9238 375.315L97.5281 375.068L96.2739 387.267L98.6696 387.514L99.9238 375.315Z" fill="white"/>
<path opacity="0.2" d="M129.711 376.627L127.315 376.381L126.061 388.58L128.457 388.827L129.711 376.627Z" fill="white"/>
<path d="M137.784 311.37C129.686 306.219 120.412 303.21 110.832 302.625C95.2722 301.822 81.2837 310.396 81.2837 310.396L83.3504 375.779L132.028 378.238C132.028 378.238 147.417 334.616 137.784 311.37Z" fill="#39A9CB"/>
<path d="M135.41 267.679C135.41 267.679 142.43 236.098 113.206 239.224C76.5354 243.152 90.4556 288.756 108.646 285.904C126.836 283.051 135.41 267.679 135.41 267.679Z" fill="#263238"/>
<path opacity="0.2" d="M129.381 309.986L130.252 323.753L119.697 314.291C119.697 314.291 118.979 321.123 116.537 332.481C115.769 326.568 114.098 320.807 111.584 315.401L101.609 325.546L95.0844 309.986C95.0844 309.986 115.068 295.503 129.381 309.986Z" fill="black"/>
<path d="M116.076 321.157L110.832 308.21L101.148 303.872C109.688 297.962 105.401 284.742 105.401 284.742L119.218 289.61C118.581 291.536 118.084 293.505 117.732 295.503C116.298 304.043 120.175 304.794 120.175 304.794L117.51 308.654L116.076 321.157Z" fill="#E4897B"/>
<path opacity="0.2" d="M119.201 289.61C118.564 291.536 118.067 293.505 117.715 295.503C111.105 292.855 105.384 284.742 105.384 284.742L119.201 289.61Z" fill="black"/>
<path d="M119.68 248.345C132.165 249.421 135.598 256.441 135.41 269.37C135.171 285.545 130.628 296.698 115.324 291.882C94.5378 285.408 98.9615 246.637 119.68 248.345Z" fill="#E4897B"/>
<path d="M127.4 267.987C128.241 269.935 129.314 271.776 130.594 273.47C130.186 273.957 129.65 274.32 129.046 274.519C128.443 274.718 127.796 274.745 127.178 274.597L127.4 267.987Z" fill="#DE5753"/>
<path d="M119.85 266.313C119.85 267.338 119.184 268.14 118.501 268.021C117.818 267.901 117.305 267.116 117.374 266.091C117.442 265.066 118.04 264.263 118.723 264.297C119.406 264.332 119.919 265.288 119.85 266.313Z" fill="#263238"/>
<path d="M118.45 264.4L120.739 263.666C120.739 263.666 119.509 265.425 118.45 264.4Z" fill="#263238"/>
<path d="M132.643 266.894C132.643 267.918 131.96 268.721 131.277 268.602C130.594 268.482 130.098 267.696 130.15 266.672C130.201 265.647 130.833 264.844 131.516 264.878C132.199 264.912 132.694 265.869 132.643 266.894Z" fill="#263238"/>
<path d="M131.226 264.981L133.514 264.246C133.514 264.246 132.285 266.057 131.226 264.981Z" fill="#263238"/>
<path d="M114.897 259.72C114.818 259.721 114.74 259.707 114.667 259.677C114.593 259.648 114.526 259.605 114.47 259.549C114.411 259.493 114.363 259.426 114.331 259.351C114.299 259.276 114.282 259.195 114.282 259.114C114.282 259.032 114.299 258.951 114.331 258.876C114.363 258.802 114.411 258.734 114.47 258.678C115.299 257.949 116.286 257.425 117.354 257.146C118.422 256.867 119.54 256.842 120.619 257.073C120.778 257.11 120.917 257.207 121.006 257.344C121.095 257.48 121.128 257.647 121.097 257.807C121.081 257.887 121.049 257.963 121.003 258.03C120.957 258.098 120.898 258.156 120.83 258.2C120.762 258.245 120.685 258.275 120.605 258.29C120.525 258.304 120.442 258.303 120.363 258.285C119.488 258.106 118.585 258.126 117.719 258.341C116.853 258.557 116.046 258.964 115.358 259.532C115.298 259.592 115.226 259.64 115.146 259.672C115.067 259.704 114.983 259.721 114.897 259.72Z" fill="#263238"/>
<path d="M134.471 260.01C134.329 260.007 134.192 259.959 134.078 259.874C133.502 259.339 132.813 258.94 132.062 258.707C131.311 258.473 130.518 258.411 129.74 258.524C129.583 258.566 129.417 258.545 129.276 258.465C129.135 258.385 129.032 258.253 128.988 258.097C128.946 257.939 128.966 257.77 129.046 257.627C129.126 257.483 129.258 257.376 129.415 257.329C130.38 257.163 131.371 257.218 132.311 257.49C133.252 257.762 134.119 258.244 134.847 258.9C134.911 258.95 134.965 259.013 135.005 259.084C135.045 259.155 135.071 259.233 135.08 259.314C135.09 259.395 135.083 259.477 135.061 259.556C135.038 259.634 135 259.708 134.949 259.771C134.893 259.845 134.821 259.906 134.738 259.947C134.655 259.989 134.564 260.01 134.471 260.01Z" fill="#263238"/>
<path d="M104.239 268.192C104.239 268.192 110.952 258.456 110.747 250.463C110.747 250.463 136.367 242.486 135.41 267.679C135.41 267.679 139.731 245.612 118.33 243.272C96.929 240.932 94.3157 272.308 104.666 282.556C104.598 282.624 100.072 274.306 104.239 268.192Z" fill="#263238"/>
<path d="M106.05 271.01C106.061 270.283 105.928 269.562 105.659 268.887C105.39 268.212 104.99 267.597 104.481 267.078C103.973 266.559 103.367 266.145 102.698 265.861C102.029 265.578 101.311 265.429 100.584 265.425C96.6899 265.527 94.1621 273.299 103.607 276.031C104.974 276.493 105.862 275.212 106.05 271.01Z" fill="#E4897B"/>
<path d="M127.912 279.687C127.162 281.023 126.506 282.41 125.948 283.837L125.162 283.666C121.575 282.863 120.192 281.326 119.731 279.84C119.513 279.114 119.477 278.346 119.628 277.603C119.696 277.183 119.822 276.775 120.004 276.39C121.994 277.861 124.278 278.887 126.699 279.396C127.4 279.601 127.912 279.687 127.912 279.687Z" fill="#263238"/>
<path d="M126.665 279.396L126.05 280.609C122.634 279.857 120.414 278.901 119.594 277.603C119.662 277.183 119.788 276.775 119.97 276.39C121.96 277.861 124.244 278.887 126.665 279.396Z" fill="white"/>
<path d="M125.128 283.666C121.541 282.863 120.158 281.326 119.697 279.84C121.051 280.184 122.334 280.762 123.488 281.548C124.237 282.072 124.809 282.81 125.128 283.666Z" fill="#DE5753"/>
<path d="M119.372 249.267C119.372 249.267 112.54 269.353 99.6789 268.055C86.8176 266.757 108.953 242.435 108.953 242.435C108.953 242.435 130.747 236.286 140.193 248.379C149.638 260.472 135.444 267.782 135.444 267.782C135.444 267.782 137.562 251.846 119.372 249.267Z" fill="#263238"/>
<path d="M109.005 266.415C108.919 266.414 108.836 266.388 108.766 266.339C108.696 266.29 108.642 266.222 108.612 266.142C108.573 266.033 108.578 265.914 108.625 265.808C108.673 265.703 108.76 265.621 108.868 265.579C119.116 261.701 118.911 247.935 118.911 247.798C118.911 247.685 118.956 247.576 119.036 247.496C119.116 247.416 119.225 247.371 119.338 247.371C119.393 247.369 119.448 247.378 119.5 247.397C119.552 247.417 119.599 247.447 119.639 247.485C119.679 247.523 119.711 247.569 119.732 247.62C119.754 247.671 119.765 247.726 119.765 247.781C119.765 247.918 119.97 262.282 109.158 266.381L109.005 266.415Z" fill="#263238"/>
<path d="M104.871 298.816L110.815 308.21L103.368 321.157L97.9709 304.538L104.871 298.816Z" fill="#39A9CB"/>
<path d="M117.493 300.61V308.654L126.29 318.373L123.42 304.418L117.493 300.61Z" fill="#39A9CB"/>
<path d="M252.032 556.4C250.569 555.727 248.994 555.328 247.387 555.221C247.387 555.221 241.802 551.942 236.268 539.183H230.051C228.999 539.193 227.976 539.526 227.121 540.137C226.265 540.748 225.619 541.608 225.268 542.599C225.169 542.874 225.111 543.161 225.097 543.453C225.163 544.959 225.322 546.459 225.576 547.945C226.492 552.887 227.707 557.77 229.214 562.566L230.255 562.309L228.343 553.018C227.711 549.875 231.024 552.915 232.561 556.092C234.098 559.269 236.456 562.48 243.322 560.909C251.332 558.996 254.543 557.851 252.032 556.4Z" fill="#263238"/>
<path d="M235.14 535.835C235.14 535.835 242.912 552.078 247.387 555.221C247.387 555.221 241.392 558.791 235.14 550.832C227.061 540.584 225.097 543.419 225.097 543.419C225.26 541.645 225.586 539.89 226.071 538.175C227.284 534.862 235.14 535.835 235.14 535.835Z" fill="#E4897B"/>
<path d="M166.496 595.069C165.232 594.067 163.797 593.303 162.26 592.814C162.26 592.814 157.614 588.305 155.257 574.59L149.228 573.087C148.205 572.849 147.134 572.931 146.159 573.322C145.185 573.713 144.354 574.394 143.779 575.273C143.61 575.518 143.483 575.789 143.404 576.076C143.11 577.548 142.91 579.036 142.806 580.534C142.497 585.556 142.497 590.593 142.806 595.615H143.882L144.223 586.153C144.36 582.942 146.854 586.682 147.639 590.133C148.425 593.583 149.911 597.255 156.948 597.358C165.198 597.477 168.597 597.118 166.496 595.069Z" fill="#263238"/>
<path d="M154.967 571.157C154.967 571.157 158.656 588.8 162.26 592.9C162.26 592.9 155.582 594.949 151.397 585.743C146 573.787 143.404 576.161 143.404 576.161C143.979 574.474 144.711 572.844 145.59 571.293C147.554 568.321 154.967 571.157 154.967 571.157Z" fill="#E4897B"/>
<path d="M96.3995 303.769C96.3995 303.769 111.549 348.775 90.1995 399.878L69.4644 397.18L82.2914 368.144L79.4903 309.662L96.3995 303.769Z" fill="#263238"/>
<path d="M125.128 305.375C125.128 305.375 132.063 316.545 131.226 350.483L135.41 398.529L139.441 395.677L136.145 372.243C136.145 372.243 144.907 330.995 140.961 312.463L125.128 305.375Z" fill="#263238"/>
<path d="M120.158 300.61C120.158 300.61 131.926 306.793 137.938 315.247L133.548 319.295L139.441 327.835L131.226 350.398C131.226 350.398 126.768 308.125 120.158 300.61Z" fill="#263238"/>
<path opacity="0.2" d="M120.158 300.61C120.158 300.61 131.926 306.793 137.938 315.247L133.548 319.295L139.441 327.835L131.226 350.398C131.226 350.398 126.768 308.125 120.158 300.61Z" fill="white"/>
<path d="M99.8667 300.797C99.8667 300.797 105.264 331.541 101.131 352.909L88.2182 323.651L95.6138 316.545L85.7587 309.508C89.7032 305.526 94.5392 302.54 99.8667 300.797Z" fill="#263238"/>
<path opacity="0.2" d="M99.8667 300.797C99.8667 300.797 105.264 331.541 101.131 352.909L88.2182 323.651L95.6138 316.545L85.7587 309.508C89.7032 305.526 94.5392 302.54 99.8667 300.797Z" fill="white"/>
<path d="M115.153 354.975L132.626 356.205C134.041 355.272 135.582 354.547 137.204 354.053C139.339 353.541 151.756 352.191 154.01 353.062C156.265 353.933 158.28 361.295 158.075 362.815C157.87 364.335 139.1 364.847 138.502 364.899C137.904 364.95 135.769 362.969 135.769 362.969L115.153 362.781V354.975Z" fill="#E4897B"/>
<path d="M79.4903 309.594C68.115 316.426 61.915 353.233 69.4643 358.989C77.0137 364.745 128.886 364.899 128.886 364.899L130.594 353.933C130.594 353.933 86.0319 349.475 83.7603 345.154C81.4887 340.833 82.2914 323.753 82.2914 323.753L79.4903 309.594Z" fill="#263238"/>
<path d="M280.676 597.409H289.677L305.852 372.243H293.913L280.676 597.409Z" fill="#263238"/>
<path opacity="0.7" d="M280.676 597.409H289.677L305.066 383.431L305.852 372.619H293.913L293.264 383.431L280.676 597.409Z" fill="white"/>
<path opacity="0.2" d="M293.264 382.901H305.066L305.852 372.619H293.913L293.264 382.901Z" fill="black"/>
<path d="M214.627 597.409H223.628L225.097 372.243H213.158L214.627 597.409Z" fill="#263238"/>
<path opacity="0.7" d="M213.141 372.619L213.38 408.931L214.61 597.409H223.628L224.858 408.931L225.097 372.619H213.141Z" fill="white"/>
<path opacity="0.2" d="M213.141 372.619L213.38 409.341H224.858L225.097 372.619H213.141Z" fill="black"/>
<path d="M119.065 597.409H128.066L144.241 372.243H132.302L119.065 597.409Z" fill="#263238"/>
<path opacity="0.7" d="M119.065 597.409H128.066L143.455 383.431L144.241 372.619H132.302L131.653 383.431L119.065 597.409Z" fill="white"/>
<path opacity="0.2" d="M131.653 382.901H143.455L144.241 372.619H132.302L131.653 382.901Z" fill="black"/>
<path d="M383.651 597.409H392.652L379.415 372.243H367.476L383.651 597.409Z" fill="#263238"/>
<path opacity="0.7" d="M367.476 372.619L368.262 383.431L383.651 597.409H392.635L380.064 383.431L379.415 372.619H367.476Z" fill="white"/>
<path opacity="0.2" d="M379.415 372.619H367.476L368.262 382.901H380.064L379.415 372.619Z" fill="black"/>
<path d="M385.188 377.897L126.529 377.897C125.55 377.897 124.612 377.508 123.92 376.816C123.228 376.124 122.839 375.186 122.839 374.207V366.624L388.929 366.624V374.207C388.929 374.696 388.832 375.18 388.643 375.631C388.454 376.082 388.178 376.491 387.83 376.834C387.482 377.178 387.069 377.448 386.616 377.631C386.162 377.813 385.677 377.903 385.188 377.897Z" fill="#39A9CB"/>
<path opacity="0.6" d="M385.188 377.897L126.529 377.897C125.55 377.897 124.612 377.508 123.92 376.816C123.228 376.124 122.839 375.186 122.839 374.207V366.624L388.929 366.624V374.207C388.929 374.696 388.832 375.18 388.643 375.631C388.454 376.082 388.178 376.491 387.83 376.834C387.482 377.178 387.069 377.448 386.616 377.631C386.162 377.813 385.677 377.903 385.188 377.897Z" fill="white"/>
<path opacity="0.2" d="M122.839 372.26L388.895 372.26V366.624L122.839 366.624V372.26Z" fill="black"/>
<path d="M117.254 368.076H394.463C395.305 368.076 396.113 367.741 396.709 367.145C397.305 366.549 397.64 365.741 397.64 364.899C397.635 364.057 397.299 363.252 396.704 362.657C396.109 362.062 395.304 361.726 394.463 361.722H117.254C116.412 361.722 115.604 362.056 115.008 362.652C114.412 363.248 114.077 364.056 114.077 364.899C114.077 365.741 114.412 366.549 115.008 367.145C115.604 367.741 116.412 368.076 117.254 368.076Z" fill="#39A9CB"/>
<path opacity="0.6" d="M117.254 368.076H394.463C395.305 368.076 396.113 367.741 396.709 367.145C397.305 366.549 397.64 365.741 397.64 364.899C397.635 364.057 397.299 363.252 396.704 362.657C396.109 362.062 395.304 361.726 394.463 361.722H117.254C116.412 361.722 115.604 362.056 115.008 362.652C114.412 363.248 114.077 364.056 114.077 364.899C114.077 365.741 114.412 366.549 115.008 367.145C115.604 367.741 116.412 368.076 117.254 368.076Z" fill="white"/>
<path d="M280.778 361.722L279.326 356.256H219.751L192.321 358.989L191.262 361.722H280.778Z" fill="#263238"/>
<path opacity="0.4" d="M219.751 356.256V361.722H280.778L279.326 356.256H219.751Z" fill="black"/>
<path d="M231.724 330.021C231.644 330.686 231.706 331.36 231.908 331.998C232.11 332.636 232.447 333.224 232.895 333.721C233.344 334.218 233.894 334.613 234.508 334.879C235.122 335.146 235.786 335.277 236.456 335.265H327.748C329.176 335.236 330.545 334.687 331.598 333.722C332.651 332.757 333.317 331.441 333.47 330.021L338.884 271.591C338.959 270.927 338.892 270.255 338.688 269.62C338.484 268.984 338.147 268.399 337.7 267.903C337.253 267.407 336.705 267.012 336.094 266.744C335.482 266.476 334.821 266.34 334.153 266.347H242.861C241.43 266.369 240.058 266.915 239.003 267.881C237.948 268.848 237.285 270.168 237.139 271.591L231.724 330.021Z" fill="#263238"/>
<path opacity="0.4" d="M236.763 335.265H327.748C329.176 335.236 330.545 334.687 331.598 333.722C332.651 332.757 333.316 331.441 333.47 330.021L338.884 271.591C338.95 271.019 338.909 270.44 338.765 269.883H247.797C246.368 269.912 245 270.46 243.947 271.425C242.894 272.39 242.228 273.706 242.075 275.126L236.66 333.557C236.599 334.128 236.633 334.705 236.763 335.265Z" fill="black"/>
<path d="M299.481 299.431H280.59L285.629 353.489L255.773 357.964V361.722H318.644V357.964L305.766 353.489L299.481 299.431Z" fill="#263238"/>
<path opacity="0.1" d="M280.59 299.431L294.579 360.868L305.766 360.543L299.481 299.431H280.59Z" fill="white"/>
<path d="M290.667 262.367H287.029V268.704H290.667V262.367Z" fill="#263238"/>
<path d="M287.029 262.128H282.64C282.193 261.233 281.976 260.241 282.008 259.242C281.96 258.246 282.178 257.256 282.64 256.372H287.029V262.128Z" fill="#263238"/>
<path d="M294.527 259.003C294.527 260.05 294.217 261.074 293.635 261.944C293.053 262.815 292.226 263.494 291.259 263.894C290.291 264.295 289.227 264.4 288.2 264.196C287.173 263.991 286.229 263.487 285.489 262.747C284.748 262.006 284.244 261.063 284.04 260.036C283.835 259.009 283.94 257.944 284.341 256.976C284.742 256.009 285.42 255.182 286.291 254.6C287.162 254.018 288.185 253.708 289.233 253.708C289.929 253.706 290.618 253.841 291.262 254.106C291.905 254.372 292.49 254.762 292.982 255.254C293.474 255.746 293.864 256.33 294.129 256.974C294.394 257.617 294.53 258.307 294.527 259.003Z" fill="#263238"/>
<path opacity="0.1" d="M294.527 259.003C294.527 260.05 294.217 261.074 293.635 261.944C293.053 262.815 292.226 263.494 291.259 263.894C290.291 264.295 289.227 264.4 288.2 264.196C287.173 263.991 286.229 263.487 285.489 262.747C284.748 262.006 284.244 261.063 284.04 260.036C283.835 259.009 283.94 257.944 284.341 256.976C284.742 256.009 285.42 255.182 286.291 254.6C287.162 254.018 288.185 253.708 289.233 253.708C289.929 253.706 290.618 253.841 291.262 254.106C291.905 254.372 292.49 254.762 292.982 255.254C293.474 255.746 293.864 256.33 294.129 256.974C294.394 257.617 294.53 258.307 294.527 259.003Z" fill="white"/>
<path d="M353.761 320.918V361.722H333.419C333.559 347.546 335.551 333.45 339.345 319.79C339.591 318.92 340.115 318.153 340.836 317.608C341.558 317.062 342.438 316.767 343.342 316.767H349.611C350.156 316.767 350.695 316.875 351.199 317.083C351.702 317.292 352.16 317.597 352.545 317.983C352.931 318.368 353.236 318.826 353.445 319.329C353.654 319.833 353.761 320.373 353.761 320.918Z" fill="#263238"/>
<path opacity="0.4" d="M353.761 320.918V361.722H343.513V322.438C343.513 320.938 344.109 319.5 345.169 318.44C346.229 317.38 347.667 316.784 349.166 316.784H349.542C350.091 316.775 350.637 316.875 351.147 317.079C351.658 317.282 352.123 317.585 352.515 317.969C352.908 318.354 353.22 318.813 353.434 319.319C353.647 319.825 353.759 320.368 353.761 320.918Z" fill="black"/>
<path d="M223.953 320.918V361.722H203.611C203.751 347.546 205.743 333.45 209.538 319.79C209.783 318.92 210.307 318.153 211.028 317.608C211.75 317.062 212.63 316.767 213.534 316.767H219.803C220.348 316.767 220.887 316.875 221.391 317.083C221.894 317.292 222.352 317.597 222.737 317.983C223.123 318.368 223.429 318.826 223.637 319.329C223.846 319.833 223.953 320.373 223.953 320.918Z" fill="#263238"/>
<path opacity="0.4" d="M223.953 320.918V361.722H213.705V322.438C213.705 320.938 214.301 319.5 215.361 318.44C216.421 317.38 217.859 316.784 219.358 316.784H219.734C220.283 316.775 220.829 316.875 221.34 317.079C221.85 317.282 222.315 317.585 222.707 317.969C223.1 318.354 223.412 318.813 223.626 319.319C223.839 319.825 223.951 320.368 223.953 320.918Z" fill="black"/>
</svg>
